<svg width="12" height="10" viewBox="0 0 12 10" fill="none" xmlns="http://www.w3.org/2000/svg">
<path fill-rule="evenodd" clip-rule="evenodd" d="M0 2.57576H6.33962C6.73615 2.57576 6.92974 2.70756 7.03072 2.81644C7.14949 2.94451 7.23019 3.14135 7.23019 3.37121C7.23019 3.60108 7.14949 3.79792 7.03072 3.92598C6.92974 4.03487 6.73615 4.16667 6.33962 4.16667V4.17027C6.26492 4.16788 6.18945 4.16667 6.11321 4.16667C4.04696 4.16667 2.54506 5.05697 1.583 6.20838C0.661344 7.31144 0.226415 8.66237 0.226415 9.69697V10H2.79245V9.69697C2.79245 9.29217 2.99903 8.5219 3.54908 7.86359C4.05872 7.25364 4.8587 6.74242 6.11321 6.74242C7.36771 6.74242 8.1677 7.25364 8.67734 7.86359C9.22738 8.5219 9.43396 9.29217 9.43396 9.69697V10H12V9.69697C12 8.66237 11.5651 7.31144 10.6434 6.20838C10.2879 5.78294 9.85878 5.39316 9.35467 5.07076C9.65413 4.54127 9.79623 3.94791 9.79623 3.37121C9.79623 2.55941 9.51466 1.71458 8.9089 1.0614C8.28535 0.389033 7.39215 0 6.33962 0H0V2.57576Z" fill="#584CE2"/>
</svg>
