<svg width="100" height="100" viewBox="0 0 100 100" fill="none" xmlns="http://www.w3.org/2000/svg">
<rect width="100" height="100" rx="50" fill="#5D44E1"/>
<path opacity="0.2" d="M50 31.25C46.206 31.2489 42.501 32.3988 39.3743 34.5477C36.2476 36.6967 33.8464 39.7436 32.4878 43.286C31.1293 46.8284 30.8773 50.6995 31.7652 54.3881C32.6531 58.0767 34.6392 61.4092 37.4609 63.9453C38.6367 61.6299 40.4306 59.6854 42.6438 58.3271C44.8571 56.9688 47.4032 56.2499 50 56.25C48.4548 56.25 46.9444 55.7918 45.6596 54.9334C44.3748 54.0749 43.3735 52.8548 42.7822 51.4272C42.1909 49.9997 42.0362 48.4288 42.3376 46.9134C42.6391 45.3979 43.3831 44.0058 44.4757 42.9132C45.5683 41.8206 46.9604 41.0766 48.4758 40.7751C49.9913 40.4737 51.5622 40.6284 52.9897 41.2197C54.4173 41.811 55.6374 42.8123 56.4958 44.0971C57.3543 45.3819 57.8125 46.8923 57.8125 48.4375C57.8125 50.5095 56.9894 52.4966 55.5243 53.9618C54.0591 55.4269 52.072 56.25 50 56.25C52.5968 56.2499 55.1429 56.9688 57.3561 58.3271C59.5694 59.6854 61.3633 61.6299 62.5391 63.9453C65.3608 61.4092 67.3468 58.0767 68.2347 54.3881C69.1227 50.6995 68.8707 46.8284 67.5122 43.286C66.1536 39.7436 63.7524 36.6967 60.6257 34.5477C57.499 32.3988 53.794 31.2489 50 31.25Z" fill="white"/>
<path d="M50 56.25C54.3147 56.25 57.8125 52.7522 57.8125 48.4375C57.8125 44.1228 54.3147 40.625 50 40.625C45.6853 40.625 42.1875 44.1228 42.1875 48.4375C42.1875 52.7522 45.6853 56.25 50 56.25Z" stroke="white" stroke-width="2" stroke-linecap="round" stroke-linejoin="round"/>
<path d="M37.4609 63.9453C38.6365 61.6297 40.4304 59.6849 42.6436 58.3264C44.8569 56.9679 47.4031 56.2488 50 56.2488C52.5969 56.2488 55.1431 56.9679 57.3564 58.3264C59.5696 59.6849 61.3635 61.6297 62.5391 63.9453" stroke="white" stroke-width="2" stroke-linecap="round" stroke-linejoin="round"/>
<path d="M64.0625 50L68.75 54.6875L73.4375 50" stroke="white" stroke-width="2" stroke-linecap="round" stroke-linejoin="round"/>
<path d="M26.5625 50L31.25 45.3125L35.9375 50" stroke="white" stroke-width="2" stroke-linecap="round" stroke-linejoin="round"/>
<path d="M68.75 54.6875V50C68.7544 45.9489 67.4467 42.0054 65.0226 38.7597C62.5985 35.514 59.1884 33.1406 55.3028 31.995C51.4171 30.8493 47.2649 30.9929 43.4676 32.4042C39.6704 33.8156 36.4324 36.4188 34.2383 39.8242" stroke="white" stroke-width="2" stroke-linecap="round" stroke-linejoin="round"/>
<path d="M31.25 45.3125V50C31.2456 54.051 32.5533 57.9946 34.9774 61.2403C37.4015 64.486 40.8116 66.8593 44.6973 68.005C48.5829 69.1507 52.7351 69.0071 56.5324 67.5958C60.3296 66.1844 63.5676 63.5812 65.7617 60.1758" stroke="white" stroke-width="2" stroke-linecap="round" stroke-linejoin="round"/>
</svg>
