<svg width="158" height="69" viewBox="0 0 158 69" fill="none" xmlns="http://www.w3.org/2000/svg">
<rect width="158" height="69" rx="34.5" fill="#5D44E1"/>
<path d="M32.2498 37.8803V44.6252C32.2498 45.2465 32.7535 45.7502 33.3748 45.7502H53.6248C54.2461 45.7502 54.7498 45.2465 54.7498 44.6252V37.8806C54.7498 37.26 54.2478 36.7566 53.6272 36.7558C48.0342 36.7484 38.4922 36.7484 33.3701 36.7556C32.7496 36.7565 32.2498 37.2598 32.2498 37.8803Z" fill="white"/>
<path fill-rule="evenodd" clip-rule="evenodd" d="M35.6809 25.1903C35.2607 24.7465 35.2607 24.027 35.6809 23.5832C36.101 23.1394 36.7822 23.1394 37.2023 23.5832L38.626 25.087C40.1348 24.3141 41.8011 23.8875 43.5001 23.8875C45.1997 23.8875 46.8658 24.3139 48.3743 25.0863L49.7973 23.5832C50.2175 23.1394 50.8986 23.1394 51.3188 23.5832C51.7389 24.027 51.7389 24.7465 51.3188 25.1903L50.2661 26.3022C52.6972 28.2208 54.4347 31.1534 54.746 34.626C54.8015 35.2448 54.2924 35.7503 53.6711 35.7503H33.3283C32.707 35.7503 32.1979 35.2448 32.2534 34.626C32.5649 31.1539 34.3033 28.2216 36.7343 26.303L35.6809 25.1903ZM38.4029 30.665C37.8817 30.665 37.4608 30.3081 37.4608 29.7272C37.4608 29.1484 37.8817 28.7393 38.4029 28.7393C38.9188 28.7393 39.3397 29.1483 39.3397 29.7272C39.3397 30.3081 38.9188 30.665 38.4029 30.665ZM48.6174 30.6815C48.098 30.6815 47.677 30.3081 47.677 29.7272C47.677 29.1484 48.098 28.758 48.6174 28.758C49.1385 28.758 49.556 29.1483 49.556 29.7272C49.556 30.3081 49.1385 30.6815 48.6174 30.6815Z" fill="white"/>
<path d="M65.044 28.5H64.168L67.324 19.908H68.392L71.584 28.5H70.684L69.844 26.22H65.884L65.044 28.5ZM67.744 21.12L66.148 25.464H69.568L67.96 21.12C67.924 21 67.864 20.856 67.852 20.772C67.84 20.844 67.792 21 67.744 21.12ZM73.8317 28.5L71.4557 22.692H72.3437L73.8437 26.436C73.9997 26.856 74.1557 27.252 74.2637 27.636C74.3717 27.24 74.5277 26.856 74.6957 26.436L76.2197 22.692H77.0717L74.6597 28.5H73.8317ZM79.4578 28.644C78.2218 28.644 77.4898 27.948 77.4898 26.928C77.4898 25.86 78.3058 25.188 79.6618 25.08L81.5818 24.924V24.732C81.5818 23.592 80.8978 23.232 80.0458 23.232C79.0378 23.232 78.4378 23.688 78.4378 24.468H77.6818C77.6818 23.292 78.6418 22.536 80.0698 22.536C81.4138 22.536 82.3978 23.208 82.3978 24.744V28.5H81.7018L81.5938 27.48C81.2338 28.212 80.4418 28.644 79.4578 28.644ZM79.6498 27.972C80.8738 27.972 81.5818 27.12 81.5818 25.86V25.548L79.8658 25.68C78.7738 25.776 78.3298 26.256 78.3298 26.904C78.3298 27.612 78.8578 27.972 79.6498 27.972ZM84.4673 21.096C84.1313 21.096 83.8553 20.82 83.8553 20.484C83.8553 20.148 84.1313 19.86 84.4673 19.86C84.8033 19.86 85.0913 20.148 85.0913 20.484C85.0913 20.82 84.8033 21.096 84.4673 21.096ZM84.0593 28.5V22.692H84.8873V28.5H84.0593ZM87.478 28.5H86.65V19.752H87.478V28.5ZM90.907 28.644C89.671 28.644 88.939 27.948 88.939 26.928C88.939 25.86 89.755 25.188 91.111 25.08L93.031 24.924V24.732C93.031 23.592 92.347 23.232 91.495 23.232C90.487 23.232 89.887 23.688 89.887 24.468H89.131C89.131 23.292 90.091 22.536 91.519 22.536C92.863 22.536 93.847 23.208 93.847 24.744V28.5H93.151L93.043 27.48C92.683 28.212 91.891 28.644 90.907 28.644ZM91.099 27.972C92.323 27.972 93.031 27.12 93.031 25.86V25.548L91.315 25.68C90.223 25.776 89.779 26.256 89.779 26.904C89.779 27.612 90.307 27.972 91.099 27.972ZM96.2285 28.5H95.5085V19.752H96.3365V23.82C96.7445 22.968 97.5365 22.536 98.5205 22.536C100.213 22.536 101.197 23.856 101.197 25.608C101.197 27.348 100.189 28.644 98.4965 28.644C97.5245 28.644 96.7205 28.212 96.3125 27.312L96.2285 28.5ZM96.3485 25.584C96.3485 26.928 97.0925 27.888 98.3645 27.888C99.6245 27.888 100.357 26.928 100.357 25.584C100.357 24.252 99.6245 23.28 98.3645 23.28C97.0925 23.28 96.3485 24.252 96.3485 25.584ZM103.38 28.5H102.552V19.752H103.38V28.5ZM107.577 28.644C105.873 28.644 104.733 27.42 104.733 25.596C104.733 23.784 105.861 22.536 107.517 22.536C109.089 22.536 110.157 23.652 110.157 25.296V25.704H105.537C105.597 27.12 106.341 27.936 107.589 27.936C108.537 27.936 109.149 27.528 109.365 26.76H110.157C109.845 27.984 108.945 28.644 107.577 28.644ZM107.517 23.244C106.425 23.244 105.705 23.964 105.561 25.104H109.329C109.329 23.988 108.609 23.244 107.517 23.244ZM114.401 25.596C114.401 23.82 115.649 22.536 117.353 22.536C119.057 22.536 120.305 23.82 120.305 25.596C120.305 27.36 119.057 28.644 117.353 28.644C115.649 28.644 114.401 27.36 114.401 25.596ZM115.241 25.584C115.241 26.952 116.105 27.9 117.353 27.9C118.589 27.9 119.465 26.952 119.465 25.584C119.465 24.24 118.589 23.28 117.353 23.28C116.105 23.28 115.241 24.24 115.241 25.584ZM122.458 28.5H121.63V22.692H122.35L122.47 23.7C122.854 22.956 123.622 22.536 124.462 22.536C126.058 22.536 126.718 23.484 126.718 24.948V28.5H125.89V25.128C125.89 23.772 125.278 23.292 124.318 23.292C123.13 23.292 122.458 24.156 122.458 25.464V28.5Z" fill="white"/>
<path d="M66.304 48.5H64.176L68.4 36.804H70.496L74.72 48.5H72.56L71.616 45.796H67.248L66.304 48.5ZM69.184 40.292L67.856 44.068H71.024L69.68 40.292C69.584 39.988 69.472 39.636 69.44 39.396C69.392 39.62 69.296 39.972 69.184 40.292ZM77.8506 48.5H75.8986V40.596H77.7066L77.8666 41.62C78.3626 40.82 79.3226 40.356 80.3946 40.356C82.3786 40.356 83.4026 41.588 83.4026 43.636V48.5H81.4506V44.1C81.4506 42.772 80.7946 42.132 79.7866 42.132C78.5866 42.132 77.8506 42.964 77.8506 44.244V48.5ZM88.5685 48.708C86.2805 48.708 84.8565 47.028 84.8565 44.58C84.8565 42.116 86.2965 40.356 88.6805 40.356C89.7845 40.356 90.7605 40.82 91.2565 41.604V36.596H93.1925V48.5H91.4005L91.2725 47.268C90.7925 48.18 89.7685 48.708 88.5685 48.708ZM89.0005 46.916C90.3605 46.916 91.2405 45.94 91.2405 44.516C91.2405 43.092 90.3605 42.1 89.0005 42.1C87.6405 42.1 86.8085 43.108 86.8085 44.516C86.8085 45.924 87.6405 46.916 89.0005 46.916ZM100.187 40.564V42.372H99.4668C98.0588 42.372 97.1788 43.124 97.1788 44.66V48.5H95.2268V40.612H97.0668L97.1788 41.764C97.5148 40.98 98.2668 40.452 99.3228 40.452C99.5948 40.452 99.8668 40.484 100.187 40.564ZM100.778 44.532C100.778 42.068 102.554 40.372 105.002 40.372C107.45 40.372 109.226 42.068 109.226 44.532C109.226 46.996 107.45 48.692 105.002 48.692C102.554 48.692 100.778 46.996 100.778 44.532ZM102.73 44.532C102.73 45.972 103.658 46.948 105.002 46.948C106.346 46.948 107.274 45.972 107.274 44.532C107.274 43.092 106.346 42.116 105.002 42.116C103.658 42.116 102.73 43.092 102.73 44.532ZM111.75 39.012C111.078 39.012 110.55 38.484 110.55 37.828C110.55 37.172 111.078 36.66 111.75 36.66C112.39 36.66 112.918 37.172 112.918 37.828C112.918 38.484 112.39 39.012 111.75 39.012ZM110.774 48.5V40.596H112.726V48.5H110.774ZM117.99 48.708C115.702 48.708 114.278 47.028 114.278 44.58C114.278 42.116 115.718 40.356 118.102 40.356C119.206 40.356 120.182 40.82 120.678 41.604V36.596H122.614V48.5H120.822L120.694 47.268C120.214 48.18 119.19 48.708 117.99 48.708ZM118.422 46.916C119.782 46.916 120.662 45.94 120.662 44.516C120.662 43.092 119.782 42.1 118.422 42.1C117.062 42.1 116.23 43.108 116.23 44.516C116.23 45.924 117.062 46.916 118.422 46.916Z" fill="white"/>
</svg>
