<svg width="168" height="69" viewBox="0 0 168 69" fill="none" xmlns="http://www.w3.org/2000/svg">
<rect width="168" height="69" rx="34.5" fill="#5D44E1"/>
<path fill-rule="evenodd" clip-rule="evenodd" d="M46.7625 26.8403C46.0172 27.7557 44.7656 28.4423 43.7672 28.4423C43.6547 28.4423 43.5422 28.428 43.4719 28.4137C43.4578 28.3565 43.4297 28.1848 43.4297 28.0132C43.4297 26.8403 44.0063 25.696 44.6391 24.9665C45.4406 24.0081 46.7766 23.2929 47.8875 23.25C47.9156 23.3787 47.9297 23.5361 47.9297 23.6934C47.9297 24.852 47.4375 26.0106 46.7625 26.8403ZM41.872 45.3234C41.3708 45.5424 40.8959 45.7498 40.2516 45.7498C38.8734 45.7498 37.9172 44.4625 36.8203 42.8891C35.5406 41.0296 34.5 38.1545 34.5 35.4367C34.5 31.0597 37.2984 28.7425 40.0547 28.7425C40.8592 28.7425 41.5942 29.0426 42.2478 29.3094C42.771 29.5229 43.242 29.7152 43.6547 29.7152C44.0126 29.7152 44.4586 29.5359 44.9785 29.3269C45.7046 29.0351 46.5748 28.6853 47.55 28.6853C48.1687 28.6853 50.4328 28.7425 51.9234 30.9167C51.9149 30.9235 51.8967 30.9357 51.8701 30.9535C51.5033 31.1998 49.5469 32.5135 49.5469 35.2079C49.5469 38.5407 52.4016 39.7279 52.5 39.7565C52.4975 39.7629 52.4916 39.7813 52.4824 39.8104C52.3885 40.1059 51.9412 41.5142 50.9812 42.9463C50.0391 44.3194 49.0406 45.7212 47.55 45.7212C46.8153 45.7212 46.3472 45.5103 45.8638 45.2926C45.348 45.0603 44.8148 44.8201 43.9219 44.8201C43.0241 44.8201 42.4317 45.0789 41.872 45.3234Z" fill="white"/>
<path d="M65.044 28.5H64.168L67.324 19.908H68.392L71.584 28.5H70.684L69.844 26.22H65.884L65.044 28.5ZM67.744 21.12L66.148 25.464H69.568L67.96 21.12C67.924 21 67.864 20.856 67.852 20.772C67.84 20.844 67.792 21 67.744 21.12ZM73.8317 28.5L71.4557 22.692H72.3437L73.8437 26.436C73.9997 26.856 74.1557 27.252 74.2637 27.636C74.3717 27.24 74.5277 26.856 74.6957 26.436L76.2197 22.692H77.0717L74.6597 28.5H73.8317ZM79.4578 28.644C78.2218 28.644 77.4898 27.948 77.4898 26.928C77.4898 25.86 78.3058 25.188 79.6618 25.08L81.5818 24.924V24.732C81.5818 23.592 80.8978 23.232 80.0458 23.232C79.0378 23.232 78.4378 23.688 78.4378 24.468H77.6818C77.6818 23.292 78.6418 22.536 80.0698 22.536C81.4138 22.536 82.3978 23.208 82.3978 24.744V28.5H81.7018L81.5938 27.48C81.2338 28.212 80.4418 28.644 79.4578 28.644ZM79.6498 27.972C80.8738 27.972 81.5818 27.12 81.5818 25.86V25.548L79.8658 25.68C78.7738 25.776 78.3298 26.256 78.3298 26.904C78.3298 27.612 78.8578 27.972 79.6498 27.972ZM84.4673 21.096C84.1313 21.096 83.8553 20.82 83.8553 20.484C83.8553 20.148 84.1313 19.86 84.4673 19.86C84.8033 19.86 85.0913 20.148 85.0913 20.484C85.0913 20.82 84.8033 21.096 84.4673 21.096ZM84.0593 28.5V22.692H84.8873V28.5H84.0593ZM87.478 28.5H86.65V19.752H87.478V28.5ZM90.907 28.644C89.671 28.644 88.939 27.948 88.939 26.928C88.939 25.86 89.755 25.188 91.111 25.08L93.031 24.924V24.732C93.031 23.592 92.347 23.232 91.495 23.232C90.487 23.232 89.887 23.688 89.887 24.468H89.131C89.131 23.292 90.091 22.536 91.519 22.536C92.863 22.536 93.847 23.208 93.847 24.744V28.5H93.151L93.043 27.48C92.683 28.212 91.891 28.644 90.907 28.644ZM91.099 27.972C92.323 27.972 93.031 27.12 93.031 25.86V25.548L91.315 25.68C90.223 25.776 89.779 26.256 89.779 26.904C89.779 27.612 90.307 27.972 91.099 27.972ZM96.2285 28.5H95.5085V19.752H96.3365V23.82C96.7445 22.968 97.5365 22.536 98.5205 22.536C100.213 22.536 101.197 23.856 101.197 25.608C101.197 27.348 100.189 28.644 98.4965 28.644C97.5245 28.644 96.7205 28.212 96.3125 27.312L96.2285 28.5ZM96.3485 25.584C96.3485 26.928 97.0925 27.888 98.3645 27.888C99.6245 27.888 100.357 26.928 100.357 25.584C100.357 24.252 99.6245 23.28 98.3645 23.28C97.0925 23.28 96.3485 24.252 96.3485 25.584ZM103.38 28.5H102.552V19.752H103.38V28.5ZM107.577 28.644C105.873 28.644 104.733 27.42 104.733 25.596C104.733 23.784 105.861 22.536 107.517 22.536C109.089 22.536 110.157 23.652 110.157 25.296V25.704H105.537C105.597 27.12 106.341 27.936 107.589 27.936C108.537 27.936 109.149 27.528 109.365 26.76H110.157C109.845 27.984 108.945 28.644 107.577 28.644ZM107.517 23.244C106.425 23.244 105.705 23.964 105.561 25.104H109.329C109.329 23.988 108.609 23.244 107.517 23.244ZM114.401 25.596C114.401 23.82 115.649 22.536 117.353 22.536C119.057 22.536 120.305 23.82 120.305 25.596C120.305 27.36 119.057 28.644 117.353 28.644C115.649 28.644 114.401 27.36 114.401 25.596ZM115.241 25.584C115.241 26.952 116.105 27.9 117.353 27.9C118.589 27.9 119.465 26.952 119.465 25.584C119.465 24.24 118.589 23.28 117.353 23.28C116.105 23.28 115.241 24.24 115.241 25.584ZM122.458 28.5H121.63V22.692H122.35L122.47 23.7C122.854 22.956 123.622 22.536 124.462 22.536C126.058 22.536 126.718 23.484 126.718 24.948V28.5H125.89V25.128C125.89 23.772 125.278 23.292 124.318 23.292C123.13 23.292 122.458 24.156 122.458 25.464V28.5Z" fill="white"/>
<path d="M66.304 48.5H64.176L68.4 36.804H70.496L74.72 48.5H72.56L71.616 45.796H67.248L66.304 48.5ZM69.184 40.292L67.856 44.068H71.024L69.68 40.292C69.584 39.988 69.472 39.636 69.44 39.396C69.392 39.62 69.296 39.972 69.184 40.292ZM75.8986 52.164V40.596H77.7066L77.8346 41.796C78.3146 40.884 79.3546 40.356 80.5546 40.356C82.7786 40.356 84.2506 41.972 84.2506 44.452C84.2506 46.916 82.9066 48.708 80.5546 48.708C79.3706 48.708 78.3466 48.244 77.8506 47.444V52.164H75.8986ZM77.8666 44.548C77.8666 45.972 78.7466 46.948 80.0906 46.948C81.4666 46.948 82.2826 45.956 82.2826 44.548C82.2826 43.14 81.4666 42.132 80.0906 42.132C78.7466 42.132 77.8666 43.124 77.8666 44.548ZM85.8049 52.164V40.596H87.6129L87.7409 41.796C88.2209 40.884 89.2609 40.356 90.4609 40.356C92.6849 40.356 94.1569 41.972 94.1569 44.452C94.1569 46.916 92.8129 48.708 90.4609 48.708C89.2769 48.708 88.2529 48.244 87.7569 47.444V52.164H85.8049ZM87.7729 44.548C87.7729 45.972 88.6529 46.948 89.9969 46.948C91.3729 46.948 92.1889 45.956 92.1889 44.548C92.1889 43.14 91.3729 42.132 89.9969 42.132C88.6529 42.132 87.7729 43.124 87.7729 44.548ZM97.6791 48.5H95.7431V36.596H97.6791V48.5ZM103.263 48.708C100.911 48.708 99.2628 46.996 99.2628 44.548C99.2628 42.068 100.879 40.356 103.199 40.356C105.567 40.356 107.071 41.94 107.071 44.404V44.996L101.119 45.012C101.263 46.404 101.999 47.108 103.295 47.108C104.367 47.108 105.071 46.692 105.295 45.94H107.103C106.767 47.668 105.327 48.708 103.263 48.708ZM103.215 41.956C102.063 41.956 101.359 42.58 101.167 43.764H105.135C105.135 42.676 104.383 41.956 103.215 41.956ZM113.922 39.012C113.25 39.012 112.722 38.484 112.722 37.828C112.722 37.172 113.25 36.66 113.922 36.66C114.562 36.66 115.09 37.172 115.09 37.828C115.09 38.484 114.562 39.012 113.922 39.012ZM112.946 48.5V40.596H114.898V48.5H112.946ZM127.874 42.644C127.874 46.196 125.538 48.692 122.178 48.692C118.834 48.692 116.53 46.212 116.53 42.644C116.53 39.092 118.85 36.596 122.194 36.596C125.538 36.596 127.874 39.076 127.874 42.644ZM125.714 42.644C125.714 40.148 124.338 38.564 122.194 38.564C120.05 38.564 118.674 40.148 118.674 42.644C118.674 45.14 120.05 46.724 122.194 46.724C124.338 46.724 125.714 45.108 125.714 42.644ZM129.108 40.068C129.108 38.02 130.804 36.596 133.268 36.596C135.636 36.596 137.14 37.908 137.204 40.02H135.156C135.108 39.012 134.388 38.42 133.236 38.42C131.972 38.42 131.156 39.028 131.156 40.004C131.156 40.836 131.604 41.3 132.58 41.524L134.42 41.924C136.42 42.356 137.396 43.38 137.396 45.124C137.396 47.3 135.7 48.708 133.124 48.708C130.628 48.708 128.996 47.38 128.948 45.284H130.996C131.012 46.276 131.812 46.868 133.124 46.868C134.484 46.868 135.348 46.276 135.348 45.3C135.348 44.516 134.948 44.052 133.988 43.844L132.132 43.428C130.148 42.996 129.108 41.86 129.108 40.068Z" fill="white"/>
</svg>
