<svg width="191" height="69" viewBox="0 0 191 69" fill="none" xmlns="http://www.w3.org/2000/svg">
<rect x="0.5" y="0.5" width="190" height="68" rx="34" fill="#5D44E1"/>
<path d="M30.772 30.692V28.804H39.668V30.692H36.244V40.5H34.196V30.692H30.772ZM44.9524 32.564V34.372H44.2324C42.8244 34.372 41.9444 35.124 41.9444 36.66V40.5H39.9924V32.612H41.8324L41.9444 33.764C42.2804 32.98 43.0324 32.452 44.0884 32.452C44.3604 32.452 44.6324 32.484 44.9524 32.564ZM48.3131 40.708C46.6331 40.708 45.6091 39.732 45.6091 38.244C45.6091 36.788 46.6651 35.876 48.5371 35.732L50.9051 35.556V35.38C50.9051 34.308 50.2651 33.876 49.2731 33.876C48.1211 33.876 47.4811 34.356 47.4811 35.188H45.8171C45.8171 33.476 47.2251 32.356 49.3691 32.356C51.4971 32.356 52.8091 33.508 52.8091 35.7V40.5H51.0971L50.9531 39.332C50.6171 40.148 49.5451 40.708 48.3131 40.708ZM48.9531 39.236C50.1531 39.236 50.9211 38.516 50.9211 37.3V36.884L49.2731 37.012C48.0571 37.124 47.5931 37.524 47.5931 38.164C47.5931 38.884 48.0731 39.236 48.9531 39.236ZM57.9748 40.708C55.6868 40.708 54.2628 39.028 54.2628 36.58C54.2628 34.116 55.7028 32.356 58.0868 32.356C59.1908 32.356 60.1668 32.82 60.6628 33.604V28.596H62.5988V40.5H60.8068L60.6788 39.268C60.1988 40.18 59.1748 40.708 57.9748 40.708ZM58.4068 38.916C59.7668 38.916 60.6468 37.94 60.6468 36.516C60.6468 35.092 59.7668 34.1 58.4068 34.1C57.0468 34.1 56.2148 35.108 56.2148 36.516C56.2148 37.924 57.0468 38.916 58.4068 38.916ZM68.169 40.708C65.817 40.708 64.169 38.996 64.169 36.548C64.169 34.068 65.785 32.356 68.105 32.356C70.473 32.356 71.977 33.94 71.977 36.404V36.996L66.025 37.012C66.169 38.404 66.905 39.108 68.201 39.108C69.273 39.108 69.977 38.692 70.201 37.94H72.009C71.673 39.668 70.233 40.708 68.169 40.708ZM68.121 33.956C66.969 33.956 66.265 34.58 66.073 35.764H70.041C70.041 34.676 69.289 33.956 68.121 33.956ZM77.3878 36.532C77.3878 34.068 79.1638 32.372 81.6118 32.372C84.0598 32.372 85.8358 34.068 85.8358 36.532C85.8358 38.996 84.0598 40.692 81.6118 40.692C79.1638 40.692 77.3878 38.996 77.3878 36.532ZM79.3398 36.532C79.3398 37.972 80.2678 38.948 81.6118 38.948C82.9558 38.948 83.8838 37.972 83.8838 36.532C83.8838 35.092 82.9558 34.116 81.6118 34.116C80.2678 34.116 79.3398 35.092 79.3398 36.532ZM89.335 40.5H87.383V32.596H89.191L89.351 33.62C89.847 32.82 90.807 32.356 91.879 32.356C93.863 32.356 94.887 33.588 94.887 35.636V40.5H92.935V36.1C92.935 34.772 92.279 34.132 91.271 34.132C90.071 34.132 89.335 34.964 89.335 36.244V40.5ZM103.837 40.5L100.349 28.804H102.477L104.333 34.98C104.509 35.62 104.685 36.276 104.861 37.3C105.053 36.26 105.229 35.652 105.437 34.98L107.277 28.804H109.533L111.341 34.98C111.533 35.636 111.709 36.308 111.901 37.3C112.125 36.212 112.285 35.588 112.461 34.996L114.349 28.804H116.429L112.877 40.5H110.893L108.397 31.988L105.853 40.5H103.837ZM120.075 40.708C117.723 40.708 116.075 38.996 116.075 36.548C116.075 34.068 117.691 32.356 120.011 32.356C122.379 32.356 123.883 33.94 123.883 36.404V36.996L117.931 37.012C118.075 38.404 118.811 39.108 120.107 39.108C121.179 39.108 121.883 38.692 122.107 37.94H123.915C123.579 39.668 122.139 40.708 120.075 40.708ZM120.027 33.956C118.875 33.956 118.171 34.58 117.979 35.764H121.947C121.947 34.676 121.195 33.956 120.027 33.956ZM127.254 40.5H125.446V28.596H127.398V33.748C127.91 32.868 128.966 32.34 130.166 32.34C132.422 32.34 133.798 34.1 133.798 36.596C133.798 39.028 132.31 40.708 130.038 40.708C128.854 40.708 127.846 40.18 127.382 39.268L127.254 40.5ZM127.414 36.516C127.414 37.94 128.294 38.916 129.638 38.916C131.014 38.916 131.83 37.924 131.83 36.516C131.83 35.108 131.014 34.1 129.638 34.1C128.294 34.1 127.414 35.092 127.414 36.516ZM134.744 38.1H136.6C136.616 38.788 137.128 39.22 138.024 39.22C138.936 39.22 139.432 38.852 139.432 38.276C139.432 37.876 139.224 37.588 138.52 37.428L137.096 37.092C135.672 36.772 134.984 36.1 134.984 34.836C134.984 33.284 136.296 32.356 138.12 32.356C139.896 32.356 141.096 33.38 141.112 34.916H139.256C139.24 34.244 138.792 33.812 138.04 33.812C137.272 33.812 136.824 34.164 136.824 34.756C136.824 35.204 137.176 35.492 137.848 35.652L139.272 35.988C140.6 36.292 141.272 36.9 141.272 38.116C141.272 39.716 139.912 40.708 137.96 40.708C135.992 40.708 134.744 39.652 134.744 38.1ZM143.734 31.012C143.062 31.012 142.534 30.484 142.534 29.828C142.534 29.172 143.062 28.66 143.734 28.66C144.374 28.66 144.902 29.172 144.902 29.828C144.902 30.484 144.374 31.012 143.734 31.012ZM142.758 40.5V32.596H144.71V40.5H142.758ZM149.415 40.5H147.463V34.228H145.943V32.596H147.463V30.132H149.415V32.596H150.951V34.228H149.415V40.5ZM155.622 40.708C153.27 40.708 151.622 38.996 151.622 36.548C151.622 34.068 153.238 32.356 155.558 32.356C157.926 32.356 159.43 33.94 159.43 36.404V36.996L153.478 37.012C153.622 38.404 154.358 39.108 155.654 39.108C156.726 39.108 157.43 38.692 157.654 37.94H159.462C159.126 39.668 157.686 40.708 155.622 40.708ZM155.574 33.956C154.422 33.956 153.718 34.58 153.526 35.764H157.494C157.494 34.676 156.742 33.956 155.574 33.956Z" fill="white"/>
</svg>
