<svg width="199" height="69" viewBox="0 0 199 69" fill="none" xmlns="http://www.w3.org/2000/svg">
<rect y="0.5" width="199" height="68" rx="34" fill="#5D44E1"/>
<path d="M30.272 30.692V28.804H39.168V30.692H35.744V40.5H33.696V30.692H30.272ZM44.4524 32.564V34.372H43.7324C42.3244 34.372 41.4444 35.124 41.4444 36.66V40.5H39.4924V32.612H41.3324L41.4444 33.764C41.7804 32.98 42.5324 32.452 43.5884 32.452C43.8604 32.452 44.1324 32.484 44.4524 32.564ZM47.8131 40.708C46.1331 40.708 45.1091 39.732 45.1091 38.244C45.1091 36.788 46.1651 35.876 48.0371 35.732L50.4051 35.556V35.38C50.4051 34.308 49.7651 33.876 48.7731 33.876C47.6211 33.876 46.9811 34.356 46.9811 35.188H45.3171C45.3171 33.476 46.7251 32.356 48.8691 32.356C50.9971 32.356 52.3091 33.508 52.3091 35.7V40.5H50.5971L50.4531 39.332C50.1171 40.148 49.0451 40.708 47.8131 40.708ZM48.4531 39.236C49.6531 39.236 50.4211 38.516 50.4211 37.3V36.884L48.7731 37.012C47.5571 37.124 47.0931 37.524 47.0931 38.164C47.0931 38.884 47.5731 39.236 48.4531 39.236ZM57.4748 40.708C55.1868 40.708 53.7628 39.028 53.7628 36.58C53.7628 34.116 55.2028 32.356 57.5868 32.356C58.6908 32.356 59.6668 32.82 60.1628 33.604V28.596H62.0988V40.5H60.3068L60.1788 39.268C59.6988 40.18 58.6748 40.708 57.4748 40.708ZM57.9068 38.916C59.2668 38.916 60.1468 37.94 60.1468 36.516C60.1468 35.092 59.2668 34.1 57.9068 34.1C56.5468 34.1 55.7148 35.108 55.7148 36.516C55.7148 37.924 56.5468 38.916 57.9068 38.916ZM67.669 40.708C65.317 40.708 63.669 38.996 63.669 36.548C63.669 34.068 65.285 32.356 67.605 32.356C69.973 32.356 71.477 33.94 71.477 36.404V36.996L65.525 37.012C65.669 38.404 66.405 39.108 67.701 39.108C68.773 39.108 69.477 38.692 69.701 37.94H71.509C71.173 39.668 69.733 40.708 67.669 40.708ZM67.621 33.956C66.469 33.956 65.765 34.58 65.573 35.764H69.541C69.541 34.676 68.789 33.956 67.621 33.956ZM76.8878 36.532C76.8878 34.068 78.6638 32.372 81.1118 32.372C83.5598 32.372 85.3358 34.068 85.3358 36.532C85.3358 38.996 83.5598 40.692 81.1118 40.692C78.6638 40.692 76.8878 38.996 76.8878 36.532ZM78.8398 36.532C78.8398 37.972 79.7678 38.948 81.1118 38.948C82.4558 38.948 83.3838 37.972 83.3838 36.532C83.3838 35.092 82.4558 34.116 81.1118 34.116C79.7678 34.116 78.8398 35.092 78.8398 36.532ZM88.835 40.5H86.883V32.596H88.691L88.851 33.62C89.347 32.82 90.307 32.356 91.379 32.356C93.363 32.356 94.387 33.588 94.387 35.636V40.5H92.435V36.1C92.435 34.772 91.779 34.132 90.771 34.132C89.571 34.132 88.835 34.964 88.835 36.244V40.5ZM103.337 40.5L99.8494 28.804H101.977L103.833 34.98C104.009 35.62 104.185 36.276 104.361 37.3C104.553 36.26 104.729 35.652 104.937 34.98L106.777 28.804H109.033L110.841 34.98C111.033 35.636 111.209 36.308 111.401 37.3C111.625 36.212 111.785 35.588 111.961 34.996L113.849 28.804H115.929L112.377 40.5H110.393L107.897 31.988L105.353 40.5H103.337ZM119.575 40.708C117.223 40.708 115.575 38.996 115.575 36.548C115.575 34.068 117.191 32.356 119.511 32.356C121.879 32.356 123.383 33.94 123.383 36.404V36.996L117.431 37.012C117.575 38.404 118.311 39.108 119.607 39.108C120.679 39.108 121.383 38.692 121.607 37.94H123.415C123.079 39.668 121.639 40.708 119.575 40.708ZM119.527 33.956C118.375 33.956 117.671 34.58 117.479 35.764H121.447C121.447 34.676 120.695 33.956 119.527 33.956ZM126.754 40.5H124.946V28.596H126.898V33.748C127.41 32.868 128.466 32.34 129.666 32.34C131.922 32.34 133.298 34.1 133.298 36.596C133.298 39.028 131.81 40.708 129.538 40.708C128.354 40.708 127.346 40.18 126.882 39.268L126.754 40.5ZM126.914 36.516C126.914 37.94 127.794 38.916 129.138 38.916C130.514 38.916 131.33 37.924 131.33 36.516C131.33 35.108 130.514 34.1 129.138 34.1C127.794 34.1 126.914 35.092 126.914 36.516ZM140.46 40.5H138.332L142.556 28.804H144.652L148.876 40.5H146.716L145.772 37.796H141.404L140.46 40.5ZM143.34 32.292L142.012 36.068H145.18L143.836 32.292C143.74 31.988 143.628 31.636 143.596 31.396C143.548 31.62 143.452 31.972 143.34 32.292ZM150.055 44.164V32.596H151.863L151.991 33.796C152.471 32.884 153.511 32.356 154.711 32.356C156.935 32.356 158.407 33.972 158.407 36.452C158.407 38.916 157.063 40.708 154.711 40.708C153.527 40.708 152.503 40.244 152.007 39.444V44.164H150.055ZM152.023 36.548C152.023 37.972 152.903 38.948 154.247 38.948C155.623 38.948 156.439 37.956 156.439 36.548C156.439 35.14 155.623 34.132 154.247 34.132C152.903 34.132 152.023 35.124 152.023 36.548ZM159.961 44.164V32.596H161.769L161.897 33.796C162.377 32.884 163.417 32.356 164.617 32.356C166.841 32.356 168.313 33.972 168.313 36.452C168.313 38.916 166.969 40.708 164.617 40.708C163.433 40.708 162.409 40.244 161.913 39.444V44.164H159.961ZM161.929 36.548C161.929 37.972 162.809 38.948 164.153 38.948C165.529 38.948 166.345 37.956 166.345 36.548C166.345 35.14 165.529 34.132 164.153 34.132C162.809 34.132 161.929 35.124 161.929 36.548Z" fill="white"/>
</svg>
