<svg width="100" height="100" viewBox="0 0 100 100" fill="none" xmlns="http://www.w3.org/2000/svg">
<rect width="100" height="100" rx="50" fill="#5D44E1"/>
<path opacity="0.2" d="M50.8594 62.2461L60.7031 68.4961C61.9727 69.2969 63.5352 68.1055 63.1641 66.6407L60.3125 55.4297C60.2354 55.119 60.2477 54.7928 60.3479 54.4887C60.4481 54.1846 60.6322 53.915 60.8789 53.711L69.707 46.3477C70.8594 45.3907 70.2734 43.4571 68.7695 43.3594L57.2461 42.6172C56.9317 42.5989 56.6294 42.4895 56.3762 42.3022C56.123 42.1149 55.9298 41.8578 55.8203 41.5625L51.5234 30.7422C51.4097 30.4295 51.2025 30.1594 50.9299 29.9686C50.6574 29.7777 50.3327 29.6753 50 29.6753C49.6673 29.6753 49.3426 29.7777 49.07 29.9686C48.7975 30.1594 48.5903 30.4295 48.4766 30.7422L44.1797 41.5625C44.0702 41.8578 43.877 42.1149 43.6238 42.3022C43.3706 42.4895 43.0683 42.5989 42.7539 42.6172L31.2305 43.3594C29.7266 43.4571 29.1406 45.3907 30.293 46.3477L39.1211 53.711C39.3678 53.915 39.5519 54.1846 39.6521 54.4887C39.7523 54.7928 39.7646 55.119 39.6875 55.4297L37.0508 65.8204C36.6016 67.5782 38.4766 69.004 39.9805 68.0469L49.1406 62.2461C49.3975 62.0828 49.6956 61.9961 50 61.9961C50.3044 61.9961 50.6025 62.0828 50.8594 62.2461Z" fill="white"/>
<path d="M50.8594 62.2461L60.7031 68.4961C61.9727 69.2969 63.5352 68.1055 63.1641 66.6407L60.3125 55.4297C60.2354 55.119 60.2477 54.7928 60.3479 54.4887C60.4481 54.1846 60.6322 53.915 60.8789 53.711L69.707 46.3477C70.8594 45.3907 70.2734 43.4571 68.7695 43.3594L57.2461 42.6172C56.9317 42.5989 56.6294 42.4895 56.3762 42.3022C56.123 42.1149 55.9298 41.8578 55.8203 41.5625L51.5234 30.7422C51.4097 30.4295 51.2025 30.1594 50.9299 29.9686C50.6574 29.7777 50.3327 29.6753 50 29.6753C49.6673 29.6753 49.3426 29.7777 49.07 29.9686C48.7975 30.1594 48.5903 30.4295 48.4766 30.7422L44.1797 41.5625C44.0702 41.8578 43.877 42.1149 43.6238 42.3022C43.3706 42.4895 43.0683 42.5989 42.7539 42.6172L31.2305 43.3594C29.7266 43.4571 29.1406 45.3907 30.293 46.3477L39.1211 53.711C39.3678 53.915 39.5519 54.1846 39.6521 54.4887C39.7523 54.7928 39.7646 55.119 39.6875 55.4297L37.0508 65.8204C36.6016 67.5782 38.4766 69.004 39.9805 68.0469L49.1406 62.2461C49.3975 62.0828 49.6956 61.9961 50 61.9961C50.3044 61.9961 50.6025 62.0828 50.8594 62.2461V62.2461Z" stroke="white" stroke-width="2" stroke-linecap="round" stroke-linejoin="round"/>
</svg>
