<svg width="10" height="18" viewBox="0 0 10 18" fill="none" xmlns="http://www.w3.org/2000/svg">
<path d="M6.72615 17.6657C5.37577 17.6657 4.05474 17.6657 2.71903 17.6657C2.71903 14.7301 2.71903 11.8091 2.71903 8.85884C2.0732 8.85884 1.44204 8.85884 0.81088 8.85884C0.781524 8.7561 0.766846 8.68271 0.766846 8.60932C0.766846 7.78734 0.766846 6.95069 0.766846 6.12872C0.766846 5.92323 0.840236 5.86452 1.03105 5.86452C1.47139 5.87919 1.92641 5.86452 2.36676 5.87919C2.61628 5.87919 2.70435 5.79112 2.71903 5.52692C2.71903 4.64623 2.68968 3.76555 2.76307 2.88486C2.88049 1.43173 3.99603 0.286842 5.44916 0.15474C6.59405 0.037315 7.76829 0.0666711 8.92786 0.0226369C9.19207 0.00795879 9.45627 0.0226369 9.73516 0.0226369C9.73516 1.03542 9.73516 2.03353 9.73516 3.07568C9.63241 3.07568 9.52966 3.09036 9.41224 3.09036C8.86915 3.09036 8.32606 3.09036 7.78297 3.09036C7.03439 3.10504 6.71147 3.42795 6.71147 4.17654C6.71147 4.63156 6.72615 5.08658 6.71147 5.5416C6.69679 5.77645 6.77018 5.84984 7.00503 5.84984C7.82701 5.83516 8.66366 5.84984 9.48563 5.84984C9.5737 5.84984 9.66177 5.86452 9.77919 5.86452C9.66177 6.86263 9.52966 7.83138 9.41224 8.82949C8.51688 8.82949 7.62151 8.82949 6.71147 8.82949C6.72615 11.7945 6.72615 14.7301 6.72615 17.6657Z" fill="#492ED5"/>
</svg>
