<svg width="40" height="38" viewBox="0 0 40 38" fill="none" xmlns="http://www.w3.org/2000/svg">
<path d="M18.2065 1.63397C18.9402 0.147482 21.0598 0.14748 21.7935 1.63397L26.2942 10.7534C26.5855 11.3437 27.1486 11.7528 27.8001 11.8475L37.864 13.3099C39.5044 13.5482 40.1594 15.5642 38.9724 16.7213L31.6901 23.8198C31.2187 24.2792 31.0036 24.9412 31.1149 25.59L32.834 35.6133C33.1142 37.2471 31.3994 38.493 29.9321 37.7216L20.9307 32.9893C20.348 32.683 19.652 32.683 19.0693 32.9893L10.0679 37.7216C8.60063 38.493 6.88576 37.2471 7.16598 35.6133L8.88511 25.59C8.99638 24.9412 8.78128 24.2792 8.30991 23.8198L1.0276 16.7213C-0.159433 15.5642 0.495585 13.5482 2.13603 13.3099L12.1999 11.8475C12.8514 11.7528 13.4145 11.3437 13.7058 10.7534L18.2065 1.63397Z" fill="#F2BC0F"/>
</svg>
