<svg width="46" height="46" viewBox="0 0 46 46" fill="none" xmlns="http://www.w3.org/2000/svg">
<path d="M21.6549 3.85526C22.2051 2.74039 23.7949 2.74039 24.3451 3.85525L28.8458 12.9747C29.21 13.7126 29.9139 14.224 30.7282 14.3423L40.7921 15.8047C42.0224 15.9835 42.5137 17.4954 41.6234 18.3632L34.3411 25.4617C33.7519 26.0361 33.483 26.8636 33.6221 27.6745L35.3412 37.6978C35.5514 38.9232 34.2652 39.8576 33.1648 39.2791L24.1634 34.5467C23.435 34.1638 22.565 34.1638 21.8366 34.5467L12.8352 39.2791C11.7348 39.8576 10.4486 38.9231 10.6588 37.6978L12.3779 27.6745C12.517 26.8636 12.2481 26.0361 11.6589 25.4617L4.37661 18.3632C3.48633 17.4954 3.9776 15.9835 5.20792 15.8047L15.2718 14.3423C16.0861 14.224 16.79 13.7126 17.1542 12.9747L21.6549 3.85526Z" fill="#EDECF8" stroke="#DFDFDF"/>
<path d="M13.0679 39.7216L23 34.5V3.8572C23 3.43265 23 2.5 23 2.5C23 2.5 22.2957 2.5 21.6514 3.06671C21.3855 3.30053 21.2141 3.61857 21.0575 3.93606L16.7058 12.7534C16.4145 13.3437 15.8514 13.7529 15.1999 13.8475L5.13604 15.3099C3.49559 15.5482 2.84058 17.5642 4.02761 18.7213L11.3099 25.8198C11.7813 26.2792 11.9964 26.9412 11.8851 27.59L10.166 37.6133C9.88577 39.2471 11.6006 40.493 13.0679 39.7216Z" fill="#F2BC0F"/>
</svg>
