<svg width="19" height="18" viewBox="0 0 19 18" fill="none" xmlns="http://www.w3.org/2000/svg">
<path d="M18.4759 8.79217C18.4466 10.0398 18.4319 11.2874 18.4025 12.5498C18.3732 13.5038 18.1824 14.4139 17.698 15.2505C16.9347 16.5569 15.7751 17.2908 14.3073 17.511C13.6175 17.6137 12.9129 17.6431 12.2084 17.6577C10.6818 17.6871 9.15532 17.6871 7.6288 17.6724C6.80683 17.6577 5.97018 17.6431 5.14821 17.5403C2.85843 17.2614 1.30255 15.7789 0.950275 13.5332C0.83285 12.814 0.818172 12.0801 0.803494 11.3462C0.774138 9.87835 0.774138 8.41054 0.788816 6.95741C0.803494 6.10608 0.818172 5.25476 0.90624 4.40343C1.08238 2.81819 1.81628 1.5412 3.24006 0.733904C3.91525 0.337596 4.66383 0.132103 5.44177 0.0880685C6.2931 0.0293562 7.14443 0 7.99576 0C9.7718 0 11.5332 0.0146781 13.3092 0.0587124C14.3514 0.0733904 15.3495 0.30824 16.2302 0.880685C17.4191 1.64395 18.0796 2.75948 18.2851 4.13922C18.3878 4.78506 18.4172 5.44557 18.4319 6.10608C18.4612 7.01613 18.4319 7.91149 18.4319 8.82153C18.4466 8.79217 18.4612 8.79217 18.4759 8.79217ZM2.34469 8.82153C2.35937 8.82153 2.37405 8.82153 2.37405 8.82153C2.37405 9.59947 2.35937 10.3921 2.37405 11.17C2.38873 11.8599 2.41808 12.5644 2.50615 13.2543C2.6089 14.0469 2.94649 14.7221 3.57765 15.2505C4.16477 15.7349 4.85465 15.9404 5.58855 15.9844C6.48391 16.0431 7.37928 16.0578 8.28932 16.0725C9.44889 16.0872 10.5938 16.0725 11.7533 16.0578C12.3845 16.0431 13.0157 16.0285 13.6468 15.9844C14.2486 15.9404 14.8211 15.7789 15.3495 15.456C16.2889 14.8542 16.6852 13.9442 16.7586 12.8727C16.8173 12.0507 16.8466 11.2434 16.8466 10.4214C16.8613 9.11509 16.8613 7.80874 16.832 6.50239C16.8173 5.78317 16.7879 5.04926 16.6852 4.33004C16.4797 2.96497 15.5403 2.0109 14.1899 1.79073C13.4266 1.6733 12.634 1.62927 11.8561 1.61459C10.3589 1.58523 8.87644 1.59991 7.37928 1.61459C6.66005 1.62927 5.92615 1.65862 5.20692 1.74669C4.23817 1.8788 3.44555 2.33382 2.93182 3.19982C2.6089 3.74291 2.46212 4.35939 2.44744 4.97587C2.40341 6.25286 2.37405 7.54454 2.34469 8.82153Z" fill="#492ED5"/>
<path d="M14.1608 8.82152C14.1608 11.3315 12.1206 13.3717 9.61063 13.3717C7.07132 13.3717 5.06042 11.3461 5.06042 8.79216C5.06042 6.28221 7.17407 4.24195 9.6987 4.27131C12.1353 4.31534 14.1608 6.3556 14.1608 8.82152ZM12.5462 8.85087C12.5462 7.2216 11.2399 5.90058 9.61063 5.8859C7.98136 5.8859 6.66034 7.20693 6.66034 8.83619C6.66034 10.4361 7.98136 11.7718 9.58128 11.7718C11.2252 11.7718 12.5462 10.4655 12.5462 8.85087Z" fill="#492ED5"/>
<path d="M14.3223 5.1669C13.7205 5.1669 13.2655 4.6972 13.2655 4.0954C13.2655 3.4936 13.7499 3.03857 14.337 3.03857C14.9388 3.03857 15.3938 3.50827 15.3791 4.11007C15.3938 4.71188 14.9241 5.1669 14.3223 5.1669Z" fill="#492ED5"/>
</svg>
