<svg width="17" height="17" viewBox="0 0 17 17" fill="none" xmlns="http://www.w3.org/2000/svg">
<path d="M16.6768 8.77454C16.6768 10.9723 16.6768 13.1835 16.6768 15.3813C16.6768 15.7276 16.5968 16.034 16.397 16.3137C16.1306 16.6733 15.7577 16.8332 15.3181 16.8332C14.1593 16.8332 13.0137 16.8332 11.8549 16.8332C8.61814 16.8332 5.38138 16.8332 2.14461 16.8332C1.27881 16.8332 0.67941 16.2471 0.67941 15.3813C0.67941 11.1721 0.67941 6.96301 0.67941 2.76721C0.67941 2.59404 0.67941 2.42088 0.67941 2.24772C0.62613 1.32864 1.38537 0.849121 2.06469 0.849121C2.69073 0.849121 3.31678 0.849121 3.94282 0.849121C6.63346 0.849121 9.33742 0.849121 12.0281 0.849121C13.1603 0.849121 14.2792 0.849121 15.4114 0.849121C16.1573 0.849121 16.6768 1.3686 16.6768 2.11452C16.6768 4.32565 16.6768 6.55009 16.6768 8.77454ZM9.35074 7.9487C9.33742 7.9487 9.31078 7.93538 9.29746 7.93538C9.29746 7.69562 9.29746 7.44253 9.29746 7.20277C9.29746 7.09621 9.27082 7.04293 9.15094 7.04293C8.48494 7.04293 7.83226 7.04293 7.16626 7.04293C7.03306 7.04293 7.00642 7.09621 7.00642 7.21609C7.00642 7.44254 7.00642 7.66898 7.00642 7.90874C7.00642 9.93338 7.00642 11.958 7.00642 13.9693C7.00642 14.1159 7.03306 14.1691 7.1929 14.1691C7.81894 14.1558 8.44499 14.1558 9.07103 14.1691C9.25751 14.1691 9.29746 14.1159 9.29746 13.9427C9.29746 12.664 9.28415 11.3853 9.31079 10.1065C9.31079 9.85346 9.37738 9.58706 9.49726 9.36062C9.7237 8.89442 10.2299 8.65466 10.7227 8.72126C11.2155 8.78786 11.5219 9.06758 11.6551 9.62702C11.7084 9.85346 11.7217 10.0932 11.7217 10.333C11.735 11.5451 11.735 12.7439 11.7217 13.956C11.7217 14.1425 11.7883 14.1958 11.9615 14.1958C12.5742 14.1825 13.1736 14.1825 13.7863 14.1958C13.9861 14.1958 14.0261 14.1292 14.0128 13.956C14.0128 12.664 14.0128 11.3719 14.0128 10.0799C14.0128 9.45386 13.9195 8.84114 13.6398 8.25506C12.8939 6.65665 10.4829 6.45685 9.51059 7.78886C9.47063 7.8155 9.40402 7.8821 9.35074 7.9487ZM5.63445 10.5994C5.63445 9.49382 5.63445 8.37494 5.63445 7.26937C5.63445 7.10953 5.58118 7.04293 5.42134 7.05625C4.7953 7.06957 4.16926 7.06957 3.54322 7.05625C3.3967 7.05625 3.34342 7.10953 3.34342 7.25605C3.34342 9.49382 3.34342 11.7316 3.34342 13.9693C3.34342 14.1558 3.41001 14.1958 3.58317 14.1958C4.1959 14.1958 4.80862 14.1825 5.42134 14.1958C5.5945 14.1958 5.63445 14.1425 5.63445 13.9693C5.63445 12.8238 5.63445 11.7049 5.63445 10.5994ZM4.56885 5.95069C5.30145 5.95069 5.80762 5.45785 5.80762 4.73857C5.80762 4.00597 5.30146 3.49981 4.58218 3.49981C3.8629 3.49981 3.35673 4.00597 3.35673 4.72525C3.34341 5.45785 3.84957 5.95069 4.56885 5.95069Z" fill="#492ED5"/>
</svg>
