<svg width="97" height="24" viewBox="0 0 97 24" fill="none" xmlns="http://www.w3.org/2000/svg">
<path fill-rule="evenodd" clip-rule="evenodd" d="M0 6.54869H13.7118C14.5694 6.54869 14.9882 6.8356 15.2066 7.07262C15.4634 7.35139 15.638 7.77988 15.638 8.28026C15.638 8.78063 15.4634 9.20912 15.2066 9.4879C14.9882 9.72492 14.5694 10.0118 13.7118 10.0118V10.0197C13.5502 10.0145 13.387 10.0118 13.2221 10.0118C8.75306 10.0118 5.50463 11.9499 3.42383 14.4563C1.4304 16.8574 0.489707 19.7982 0.489707 22.0503V22.71H6.03972V22.0503C6.03972 21.1692 6.48653 19.4924 7.6762 18.0594C8.77849 16.7316 10.5088 15.6188 13.2221 15.6188C15.9354 15.6188 17.6657 16.7316 18.768 18.0594C19.9577 19.4924 20.4045 21.1692 20.4045 22.0503V22.71H25.9545V22.0503C25.9545 19.7982 25.0138 16.8574 23.0204 14.4563C22.2515 13.5302 21.3233 12.6817 20.233 11.9799C20.8807 10.8273 21.188 9.53562 21.188 8.28026C21.188 6.51311 20.579 4.67406 19.2688 3.25219C17.9202 1.78857 15.9883 0.941711 13.7118 0.941711H0V6.54869Z" fill="white"/>
<path d="M40.7301 22.71V15.7709H44.0791L47.0529 22.71H51.7951L48.3121 14.8332C50.5091 13.708 51.6075 11.8861 51.6075 9.31413C51.6075 5.215 48.8748 2.88412 44.0523 2.88412H36.3898V22.71H40.7301ZM40.7301 6.74212H44.0523C45.9813 6.74212 47.0261 7.65304 47.0261 9.31413C47.0261 11.002 45.9277 11.9665 44.0255 11.9665H40.7301V6.74212Z" fill="white"/>
<path d="M56.3624 7.22438C57.6484 7.22438 58.6933 6.1795 58.6933 4.8667C58.6933 3.55391 57.6484 2.53582 56.3624 2.53582C55.0496 2.53582 54.0048 3.55391 54.0048 4.8667C54.0048 6.1795 55.0496 7.22438 56.3624 7.22438ZM54.3263 22.71H58.4522V9.31413H54.3263V22.71Z" fill="white"/>
<path d="M60.8241 15.9585C60.8241 20.2452 63.5568 23.0583 67.7899 23.0583C71.5408 23.0583 74.2735 20.7542 74.5415 17.3784H70.3887C70.1208 18.6912 69.2367 19.361 67.7899 19.361C66.0217 19.361 64.9768 18.1018 64.9768 15.9585C64.9768 13.8955 66.1021 12.5827 67.8435 12.5827C69.2635 12.5827 70.094 13.2257 70.3887 14.5653H74.5415C74.2735 11.0556 71.6479 8.88546 67.6828 8.88546C63.664 8.88546 60.8241 11.8326 60.8241 15.9585Z" fill="white"/>
<path d="M80.9269 22.71V19.361L82.5076 17.6999L85.5083 22.71H90.2772L85.4011 14.6189L90.4379 9.31413H85.2671L80.9269 14.1366V2.50903H76.801V22.71H80.9269Z" fill="white"/>
<path d="M94.1691 7.22438C95.4551 7.22438 96.5 6.1795 96.5 4.8667C96.5 3.55391 95.4551 2.53582 94.1691 2.53582C92.8563 2.53582 91.8114 3.55391 91.8114 4.8667C91.8114 6.1795 92.8563 7.22438 94.1691 7.22438ZM92.1329 22.71H96.2589V9.31413H92.1329V22.71Z" fill="white"/>
</svg>
