<svg width="27" height="16" viewBox="0 0 27 16" fill="none" xmlns="http://www.w3.org/2000/svg">
<path d="M8.07555 0.423373C3.97325 0.447791 0.676758 3.7687 0.676758 7.85878C0.676758 11.9122 3.96104 15.3064 8.06333 15.2576C12.1412 15.343 15.4621 11.8756 15.4865 7.8832C15.4987 3.80532 12.129 0.411163 8.07555 0.423373Z" fill="#492ED5"/>
<path d="M21.5546 1.60756C20.5412 0.643034 19.4302 0.655243 18.4656 1.3878C17.7453 1.93721 17.2936 2.70639 16.9639 3.52441C16.4267 4.90405 16.1337 6.35695 16.1825 7.72438C16.1459 9.50692 16.4511 11.0941 17.1593 12.5959C17.5377 13.4017 18.0261 14.122 18.8563 14.5615C19.7964 15.0621 20.59 14.8424 21.2982 14.3174C21.9941 13.7924 22.4336 13.0476 22.7633 12.2662C23.3127 10.9232 23.5691 9.51913 23.5813 8.06624C23.5935 6.83311 23.4592 5.61219 23.1051 4.42789C22.7877 3.3779 22.3604 2.37674 21.5546 1.60756Z" fill="#492ED5"/>
<path d="M26.5603 3.6833C26.487 3.10947 26.2673 2.53564 26.0475 1.98622C25.8278 1.46122 25.4615 1.47343 25.1562 1.93738C25.1318 1.97401 25.1196 2.01064 25.1074 2.04727C24.9365 2.60889 24.7167 3.17051 24.619 3.75656C24.3138 5.51468 24.2772 7.28502 24.3382 9.05536C24.3749 10.1542 24.4725 11.253 24.7045 12.3274C24.8022 12.7914 24.9487 13.2431 25.144 13.6826C25.2173 13.8658 25.4493 14.0611 25.6324 14.0978C25.7545 14.1222 25.9865 13.8902 26.0597 13.7193C26.2429 13.353 26.4016 12.9745 26.4871 12.5838C26.8045 11.021 26.9144 9.44605 26.9144 7.85885C26.9388 7.85885 26.9754 7.85885 26.9998 7.84664C26.8411 6.45479 26.7434 5.06294 26.5603 3.6833Z" fill="#492ED5"/>
</svg>
