<svg width="371" height="73" viewBox="0 0 371 73" fill="none" xmlns="http://www.w3.org/2000/svg">
<path d="M29.232 48.328H24.96V55H19.152V48.328H1.344V42.952L17.232 19.912H24.96V42.952H29.232V48.328ZM7.872 42.952H19.152V26.536L7.872 42.952ZM37.2413 55.576C35.1293 55.576 33.3533 53.848 33.3533 51.784C33.3533 49.672 35.1293 47.944 37.2413 47.944C39.3533 47.944 41.1293 49.672 41.1293 51.784C41.1293 53.848 39.3533 55.576 37.2413 55.576ZM57.66 55.576C50.316 55.576 45.468 50.872 45.468 43.768H51.564C51.564 47.752 53.916 50.104 57.804 50.104C61.932 50.104 64.572 47.416 64.572 43.144C64.572 39.064 62.124 36.28 57.9 36.28C55.212 36.28 52.764 37.624 51.516 39.448L46.092 38.296L50.412 19.912H68.7V25.576H54.828L52.956 32.872C54.636 31.768 56.748 31.144 59.148 31.144C66.156 31.144 70.812 35.896 70.812 42.808C70.812 50.392 65.484 55.576 57.66 55.576Z" fill="white"/>
<path opacity="0.4" d="M80.872 60H77L86.12 36.64H90.024L80.872 60ZM98.5025 60.384C93.6065 60.384 90.3745 57.248 90.3745 52.512H94.4385C94.4385 55.168 96.0065 56.736 98.5985 56.736C101.351 56.736 103.111 54.944 103.111 52.096C103.111 49.376 101.479 47.52 98.6625 47.52C96.8705 47.52 95.2385 48.416 94.4065 49.632L90.7905 48.864L93.6705 36.608H105.863V40.384H96.6145L95.3665 45.248C96.4865 44.512 97.8945 44.096 99.4945 44.096C104.167 44.096 107.271 47.264 107.271 51.872C107.271 56.928 103.719 60.384 98.5025 60.384Z" fill="white"/>
<path d="M142.207 3.63397C142.94 2.14748 145.06 2.14748 145.793 3.63397L150.294 12.7534C150.586 13.3437 151.149 13.7528 151.8 13.8475L161.864 15.3099C163.504 15.5482 164.159 17.5642 162.972 18.7213L155.69 25.8198C155.219 26.2792 155.004 26.9412 155.115 27.59L156.834 37.6133C157.114 39.2471 155.399 40.493 153.932 39.7216L144.931 34.9893C144.348 34.683 143.652 34.683 143.069 34.9893L134.068 39.7216C132.601 40.493 130.886 39.2471 131.166 37.6133L132.885 27.59C132.996 26.9412 132.781 26.2792 132.31 25.8198L125.028 18.7213C123.841 17.5642 124.496 15.5482 126.136 15.3099L136.2 13.8475C136.851 13.7528 137.414 13.3437 137.706 12.7534L142.207 3.63397Z" fill="#F2BC0F"/>
<path d="M193.207 3.63397C193.94 2.14748 196.06 2.14748 196.793 3.63397L201.294 12.7534C201.586 13.3437 202.149 13.7528 202.8 13.8475L212.864 15.3099C214.504 15.5482 215.159 17.5642 213.972 18.7213L206.69 25.8198C206.219 26.2792 206.004 26.9412 206.115 27.59L207.834 37.6133C208.114 39.2471 206.399 40.493 204.932 39.7216L195.931 34.9893C195.348 34.683 194.652 34.683 194.069 34.9893L185.068 39.7216C183.601 40.493 181.886 39.2471 182.166 37.6133L183.885 27.59C183.996 26.9412 183.781 26.2792 183.31 25.8198L176.028 18.7213C174.841 17.5642 175.496 15.5482 177.136 15.3099L187.2 13.8475C187.851 13.7528 188.414 13.3437 188.706 12.7534L193.207 3.63397Z" fill="#F2BC0F"/>
<path d="M244.207 3.63397C244.94 2.14748 247.06 2.14748 247.793 3.63397L252.294 12.7534C252.586 13.3437 253.149 13.7528 253.8 13.8475L263.864 15.3099C265.504 15.5482 266.159 17.5642 264.972 18.7213L257.69 25.8198C257.219 26.2792 257.004 26.9412 257.115 27.59L258.834 37.6133C259.114 39.2471 257.399 40.493 255.932 39.7216L246.931 34.9893C246.348 34.683 245.652 34.683 245.069 34.9893L236.068 39.7216C234.601 40.493 232.886 39.2471 233.166 37.6133L234.885 27.59C234.996 26.9412 234.781 26.2792 234.31 25.8198L227.028 18.7213C225.841 17.5642 226.496 15.5482 228.136 15.3099L238.2 13.8475C238.851 13.7528 239.414 13.3437 239.706 12.7534L244.207 3.63397Z" fill="#F2BC0F"/>
<path d="M295.207 3.63397C295.94 2.14748 298.06 2.14748 298.793 3.63397L303.294 12.7534C303.586 13.3437 304.149 13.7528 304.8 13.8475L314.864 15.3099C316.504 15.5482 317.159 17.5642 315.972 18.7213L308.69 25.8198C308.219 26.2792 308.004 26.9412 308.115 27.59L309.834 37.6133C310.114 39.2471 308.399 40.493 306.932 39.7216L297.931 34.9893C297.348 34.683 296.652 34.683 296.069 34.9893L287.068 39.7216C285.601 40.493 283.886 39.2471 284.166 37.6133L285.885 27.59C285.996 26.9412 285.781 26.2792 285.31 25.8198L278.028 18.7213C276.841 17.5642 277.496 15.5482 279.136 15.3099L289.2 13.8475C289.851 13.7528 290.414 13.3437 290.706 12.7534L295.207 3.63397Z" fill="#F2BC0F"/>
<path d="M346.207 3.63397C346.94 2.14748 349.06 2.14748 349.793 3.63397L354.294 12.7534C354.586 13.3437 355.149 13.7528 355.8 13.8475L365.864 15.3099C367.504 15.5482 368.159 17.5642 366.972 18.7213L359.69 25.8198C359.219 26.2792 359.004 26.9412 359.115 27.59L360.834 37.6133C361.114 39.2471 359.399 40.493 357.932 39.7216L348.931 34.9893C348.348 34.683 347.652 34.683 347.069 34.9893L338.068 39.7216C336.601 40.493 334.886 39.2471 335.166 37.6133L336.885 27.59C336.996 26.9412 336.781 26.2792 336.31 25.8198L329.028 18.7213C327.841 17.5642 328.496 15.5482 330.136 15.3099L340.2 13.8475C340.851 13.7528 341.414 13.3437 341.706 12.7534L346.207 3.63397Z" fill="#5D44E1"/>
<path d="M338.068 39.7216L348 34.5V3.8572C348 3.43265 348 2.5 348 2.5C348 2.5 347.296 2.5 346.651 3.06671C346.386 3.30053 346.214 3.61857 346.057 3.93606L341.706 12.7534C341.414 13.3437 340.851 13.7529 340.2 13.8475L330.136 15.3099C328.496 15.5482 327.841 17.5642 329.028 18.7213L336.31 25.8198C336.781 26.2792 336.996 26.9412 336.885 27.59L335.166 37.6133C334.886 39.2471 336.601 40.493 338.068 39.7216Z" fill="#F2BC0F"/>
<path opacity="0.7" d="M126.516 59.998C124.332 59.998 123.016 61.608 123.016 64.002C123.016 66.452 124.444 67.866 126.53 67.866C128.252 67.866 129.638 66.984 129.638 64.94V64.646H126.25V63.428H130.926V69.014H129.778L129.68 67.642C129.134 68.524 127.902 69.168 126.418 69.168C123.548 69.168 121.574 67.096 121.574 63.974C121.574 60.894 123.562 58.71 126.544 58.71C128.756 58.71 130.478 59.984 130.814 61.93H129.358C128.98 60.642 127.86 59.998 126.516 59.998ZM132.209 65.57C132.209 63.456 133.721 61.972 135.779 61.972C137.823 61.972 139.335 63.456 139.335 65.57C139.335 67.684 137.823 69.168 135.779 69.168C133.721 69.168 132.209 67.684 132.209 65.57ZM133.539 65.57C133.539 66.998 134.449 67.992 135.779 67.992C137.095 67.992 138.019 66.998 138.019 65.57C138.019 64.142 137.095 63.148 135.779 63.148C134.449 63.148 133.539 64.142 133.539 65.57ZM140.344 65.57C140.344 63.456 141.856 61.972 143.914 61.972C145.958 61.972 147.47 63.456 147.47 65.57C147.47 67.684 145.958 69.168 143.914 69.168C141.856 69.168 140.344 67.684 140.344 65.57ZM141.674 65.57C141.674 66.998 142.584 67.992 143.914 67.992C145.23 67.992 146.154 66.998 146.154 65.57C146.154 64.142 145.23 63.148 143.914 63.148C142.584 63.148 141.674 64.142 141.674 65.57ZM148.493 65.402C148.493 63.47 149.739 61.958 151.727 61.958C152.833 61.958 153.687 62.462 154.121 63.316L154.219 62.154H155.395V68.72C155.395 70.876 154.065 72.248 151.965 72.248C150.103 72.248 148.829 71.198 148.577 69.462H149.893C150.061 70.47 150.817 71.058 151.965 71.058C153.253 71.058 154.093 70.218 154.093 68.916V67.544C153.645 68.342 152.749 68.818 151.671 68.818C149.725 68.818 148.493 67.32 148.493 65.402ZM149.809 65.374C149.809 66.662 150.607 67.67 151.895 67.67C153.225 67.67 154.037 66.718 154.037 65.374C154.037 64.058 153.253 63.106 151.909 63.106C150.593 63.106 149.809 64.114 149.809 65.374ZM158.638 69H157.322V58.696H158.638V69ZM163.529 69.168C161.513 69.168 160.127 67.712 160.127 65.584C160.127 63.442 161.485 61.958 163.473 61.958C165.419 61.958 166.693 63.302 166.693 65.332V65.822L161.401 65.836C161.499 67.278 162.255 68.076 163.557 68.076C164.579 68.076 165.251 67.656 165.475 66.872H166.707C166.371 68.342 165.223 69.168 163.529 69.168ZM163.473 63.064C162.325 63.064 161.597 63.75 161.429 64.954H165.377C165.377 63.82 164.635 63.064 163.473 63.064ZM176.149 65.388H173.587V69H172.215V58.878H176.149C178.137 58.878 179.411 60.18 179.411 62.126C179.411 64.016 178.123 65.388 176.149 65.388ZM175.911 60.11H173.587V64.156H175.855C177.213 64.156 177.969 63.358 177.969 62.112C177.969 60.838 177.199 60.11 175.911 60.11ZM182.085 69H180.769V58.696H182.085V69ZM186.024 69.168C184.554 69.168 183.686 68.342 183.686 67.096C183.686 65.836 184.624 65.052 186.234 64.926L188.39 64.758V64.562C188.39 63.414 187.704 63.008 186.78 63.008C185.674 63.008 185.044 63.498 185.044 64.324H183.896C183.896 62.896 185.072 61.958 186.836 61.958C188.53 61.958 189.678 62.854 189.678 64.702V69H188.558L188.418 67.894C188.068 68.678 187.13 69.168 186.024 69.168ZM186.402 68.146C187.648 68.146 188.404 67.334 188.404 66.046V65.682L186.654 65.822C185.492 65.934 185.016 66.382 185.016 67.054C185.016 67.782 185.548 68.146 186.402 68.146ZM190.679 72.066V70.988H191.561C192.191 70.988 192.695 70.89 193.017 70.022L193.255 69.364L190.497 62.154H191.883L193.871 67.67L195.901 62.154H197.259L194.025 70.54C193.563 71.716 192.877 72.206 191.827 72.206C191.393 72.206 191.029 72.15 190.679 72.066ZM197.654 67.012H198.914C198.914 67.712 199.446 68.132 200.314 68.132C201.238 68.132 201.77 67.754 201.77 67.124C201.77 66.662 201.546 66.382 200.832 66.2L199.628 65.92C198.41 65.626 197.836 65.024 197.836 64.016C197.836 62.756 198.9 61.958 200.412 61.958C201.91 61.958 202.89 62.798 202.918 64.1H201.658C201.63 63.414 201.168 62.98 200.37 62.98C199.544 62.98 199.082 63.344 199.082 63.974C199.082 64.436 199.418 64.744 200.09 64.912L201.294 65.206C202.456 65.486 203.03 66.018 203.03 67.04C203.03 68.342 201.91 69.168 200.286 69.168C198.676 69.168 197.654 68.314 197.654 67.012ZM206.421 69H205.105V63.26H203.761V62.154H205.105V60.012H206.421V62.154H207.765V63.26H206.421V69ZM208.43 65.57C208.43 63.456 209.942 61.972 212 61.972C214.044 61.972 215.556 63.456 215.556 65.57C215.556 67.684 214.044 69.168 212 69.168C209.942 69.168 208.43 67.684 208.43 65.57ZM209.76 65.57C209.76 66.998 210.67 67.992 212 67.992C213.316 67.992 214.24 66.998 214.24 65.57C214.24 64.142 213.316 63.148 212 63.148C210.67 63.148 209.76 64.142 209.76 65.57ZM220.933 62.098V63.302H220.345C219.099 63.302 218.329 64.058 218.329 65.374V69H217.013V62.168H218.245L218.329 63.204C218.609 62.49 219.295 62.014 220.233 62.014C220.471 62.014 220.667 62.042 220.933 62.098ZM224.875 69.168C222.859 69.168 221.473 67.712 221.473 65.584C221.473 63.442 222.831 61.958 224.819 61.958C226.765 61.958 228.039 63.302 228.039 65.332V65.822L222.747 65.836C222.845 67.278 223.601 68.076 224.903 68.076C225.925 68.076 226.597 67.656 226.821 66.872H228.053C227.717 68.342 226.569 69.168 224.875 69.168ZM224.819 63.064C223.671 63.064 222.943 63.75 222.775 64.954H226.723C226.723 63.82 225.981 63.064 224.819 63.064ZM240.137 69L239.339 68.09C238.555 68.79 237.477 69.182 236.203 69.182C234.033 69.182 232.605 68.062 232.605 66.368C232.605 65.122 233.403 64.128 235.083 63.26C234.215 62.266 233.893 61.65 233.893 60.894C233.893 59.62 234.887 58.71 236.315 58.71C237.701 58.71 238.653 59.564 238.653 60.81C238.653 61.818 238.135 62.602 236.833 63.484L239.255 66.242C239.479 65.696 239.605 65.024 239.605 64.268H240.879C240.879 65.416 240.599 66.424 240.109 67.208L241.677 69H240.137ZM235.139 60.88C235.139 61.412 235.377 61.832 236.161 62.728C237.015 62.21 237.421 61.594 237.421 60.838C237.421 60.18 237.001 59.774 236.301 59.774C235.587 59.774 235.139 60.208 235.139 60.88ZM233.977 66.27C233.977 67.376 234.859 68.048 236.329 68.048C237.267 68.048 238.023 67.768 238.583 67.222L235.741 64.002C234.481 64.702 233.977 65.36 233.977 66.27ZM246.723 60.53C246.247 60.53 245.855 60.138 245.855 59.662C245.855 59.172 246.247 58.794 246.723 58.794C247.199 58.794 247.591 59.172 247.591 59.662C247.591 60.138 247.199 60.53 246.723 60.53ZM246.079 69V62.154H247.395V69H246.079ZM258.658 63.932C258.658 67.012 256.642 69.168 253.772 69.168C250.916 69.168 248.928 67.012 248.928 63.932C248.928 60.866 250.93 58.696 253.786 58.696C256.656 58.696 258.658 60.852 258.658 63.932ZM257.216 63.932C257.216 61.58 255.844 60.026 253.786 60.026C251.728 60.026 250.37 61.58 250.37 63.932C250.37 66.284 251.728 67.852 253.786 67.852C255.844 67.852 257.216 66.27 257.216 63.932ZM259.824 61.608C259.824 59.872 261.224 58.696 263.31 58.696C265.242 58.696 266.488 59.774 266.6 61.524H265.214C265.144 60.516 264.43 59.928 263.296 59.928C262.022 59.928 261.196 60.572 261.196 61.566C261.196 62.378 261.658 62.868 262.61 63.092L264.276 63.484C265.928 63.862 266.768 64.758 266.768 66.186C266.768 68.006 265.354 69.168 263.198 69.168C261.14 69.168 259.768 68.09 259.684 66.354H261.084C261.112 67.32 261.924 67.936 263.198 67.936C264.542 67.936 265.396 67.306 265.396 66.298C265.396 65.5 264.962 64.996 263.996 64.772L262.33 64.394C260.678 64.016 259.824 63.064 259.824 61.608ZM271.537 67.012H272.797C272.797 67.712 273.329 68.132 274.197 68.132C275.121 68.132 275.653 67.754 275.653 67.124C275.653 66.662 275.429 66.382 274.715 66.2L273.511 65.92C272.293 65.626 271.719 65.024 271.719 64.016C271.719 62.756 272.783 61.958 274.295 61.958C275.793 61.958 276.773 62.798 276.801 64.1H275.541C275.513 63.414 275.051 62.98 274.253 62.98C273.427 62.98 272.965 63.344 272.965 63.974C272.965 64.436 273.301 64.744 273.973 64.912L275.177 65.206C276.339 65.486 276.913 66.018 276.913 67.04C276.913 68.342 275.793 69.168 274.169 69.168C272.559 69.168 271.537 68.314 271.537 67.012ZM280.304 69H278.988V63.26H277.644V62.154H278.988V60.012H280.304V62.154H281.648V63.26H280.304V69ZM282.313 65.57C282.313 63.456 283.825 61.972 285.883 61.972C287.927 61.972 289.439 63.456 289.439 65.57C289.439 67.684 287.927 69.168 285.883 69.168C283.825 69.168 282.313 67.684 282.313 65.57ZM283.643 65.57C283.643 66.998 284.553 67.992 285.883 67.992C287.199 67.992 288.123 66.998 288.123 65.57C288.123 64.142 287.199 63.148 285.883 63.148C284.553 63.148 283.643 64.142 283.643 65.57ZM294.815 62.098V63.302H294.227C292.981 63.302 292.211 64.058 292.211 65.374V69H290.895V62.168H292.127L292.211 63.204C292.491 62.49 293.177 62.014 294.115 62.014C294.353 62.014 294.549 62.042 294.815 62.098ZM298.758 69.168C296.742 69.168 295.356 67.712 295.356 65.584C295.356 63.442 296.714 61.958 298.702 61.958C300.648 61.958 301.922 63.302 301.922 65.332V65.822L296.63 65.836C296.728 67.278 297.484 68.076 298.786 68.076C299.808 68.076 300.48 67.656 300.704 66.872H301.936C301.6 68.342 300.452 69.168 298.758 69.168ZM298.702 63.064C297.554 63.064 296.826 63.75 296.658 64.954H300.606C300.606 63.82 299.864 63.064 298.702 63.064Z" fill="white"/>
</svg>
