<svg width="367" height="73" viewBox="0 0 367 73" fill="none" xmlns="http://www.w3.org/2000/svg">
<path d="M29.232 48.328H24.96V55H19.152V48.328H1.344V42.952L17.232 19.912H24.96V42.952H29.232V48.328ZM7.872 42.952H19.152V26.536L7.872 42.952ZM37.2413 55.576C35.1293 55.576 33.3533 53.848 33.3533 51.784C33.3533 49.672 35.1293 47.944 37.2413 47.944C39.3533 47.944 41.1293 49.672 41.1293 51.784C41.1293 53.848 39.3533 55.576 37.2413 55.576ZM43.1329 19.912H68.3329V25.576L55.6129 55H49.2289L62.1889 25.576H43.1329V19.912Z" fill="white"/>
<path opacity="0.4" d="M76.872 60H73L82.12 36.64H86.024L76.872 60ZM94.5025 60.384C89.6065 60.384 86.3745 57.248 86.3745 52.512H90.4385C90.4385 55.168 92.0065 56.736 94.5985 56.736C97.3505 56.736 99.1105 54.944 99.1105 52.096C99.1105 49.376 97.4785 47.52 94.6625 47.52C92.8705 47.52 91.2385 48.416 90.4065 49.632L86.7905 48.864L89.6705 36.608H101.863V40.384H92.6145L91.3665 45.248C92.4865 44.512 93.8945 44.096 95.4945 44.096C100.167 44.096 103.271 47.264 103.271 51.872C103.271 56.928 99.7185 60.384 94.5025 60.384Z" fill="white"/>
<path d="M138.207 3.63397C138.94 2.14748 141.06 2.14748 141.793 3.63397L146.294 12.7534C146.586 13.3437 147.149 13.7528 147.8 13.8475L157.864 15.3099C159.504 15.5482 160.159 17.5642 158.972 18.7213L151.69 25.8198C151.219 26.2792 151.004 26.9412 151.115 27.59L152.834 37.6133C153.114 39.2471 151.399 40.493 149.932 39.7216L140.931 34.9893C140.348 34.683 139.652 34.683 139.069 34.9893L130.068 39.7216C128.601 40.493 126.886 39.2471 127.166 37.6133L128.885 27.59C128.996 26.9412 128.781 26.2792 128.31 25.8198L121.028 18.7213C119.841 17.5642 120.496 15.5482 122.136 15.3099L132.2 13.8475C132.851 13.7528 133.414 13.3437 133.706 12.7534L138.207 3.63397Z" fill="#F2BC0F"/>
<path d="M189.207 3.63397C189.94 2.14748 192.06 2.14748 192.793 3.63397L197.294 12.7534C197.586 13.3437 198.149 13.7528 198.8 13.8475L208.864 15.3099C210.504 15.5482 211.159 17.5642 209.972 18.7213L202.69 25.8198C202.219 26.2792 202.004 26.9412 202.115 27.59L203.834 37.6133C204.114 39.2471 202.399 40.493 200.932 39.7216L191.931 34.9893C191.348 34.683 190.652 34.683 190.069 34.9893L181.068 39.7216C179.601 40.493 177.886 39.2471 178.166 37.6133L179.885 27.59C179.996 26.9412 179.781 26.2792 179.31 25.8198L172.028 18.7213C170.841 17.5642 171.496 15.5482 173.136 15.3099L183.2 13.8475C183.851 13.7528 184.414 13.3437 184.706 12.7534L189.207 3.63397Z" fill="#F2BC0F"/>
<path d="M240.207 3.63397C240.94 2.14748 243.06 2.14748 243.793 3.63397L248.294 12.7534C248.586 13.3437 249.149 13.7528 249.8 13.8475L259.864 15.3099C261.504 15.5482 262.159 17.5642 260.972 18.7213L253.69 25.8198C253.219 26.2792 253.004 26.9412 253.115 27.59L254.834 37.6133C255.114 39.2471 253.399 40.493 251.932 39.7216L242.931 34.9893C242.348 34.683 241.652 34.683 241.069 34.9893L232.068 39.7216C230.601 40.493 228.886 39.2471 229.166 37.6133L230.885 27.59C230.996 26.9412 230.781 26.2792 230.31 25.8198L223.028 18.7213C221.841 17.5642 222.496 15.5482 224.136 15.3099L234.2 13.8475C234.851 13.7528 235.414 13.3437 235.706 12.7534L240.207 3.63397Z" fill="#F2BC0F"/>
<path d="M291.207 3.63397C291.94 2.14748 294.06 2.14748 294.793 3.63397L299.294 12.7534C299.586 13.3437 300.149 13.7528 300.8 13.8475L310.864 15.3099C312.504 15.5482 313.159 17.5642 311.972 18.7213L304.69 25.8198C304.219 26.2792 304.004 26.9412 304.115 27.59L305.834 37.6133C306.114 39.2471 304.399 40.493 302.932 39.7216L293.931 34.9893C293.348 34.683 292.652 34.683 292.069 34.9893L283.068 39.7216C281.601 40.493 279.886 39.2471 280.166 37.6133L281.885 27.59C281.996 26.9412 281.781 26.2792 281.31 25.8198L274.028 18.7213C272.841 17.5642 273.496 15.5482 275.136 15.3099L285.2 13.8475C285.851 13.7528 286.414 13.3437 286.706 12.7534L291.207 3.63397Z" fill="#F2BC0F"/>
<path d="M342.207 3.63397C342.94 2.14748 345.06 2.14748 345.793 3.63397L350.294 12.7534C350.586 13.3437 351.149 13.7528 351.8 13.8475L361.864 15.3099C363.504 15.5482 364.159 17.5642 362.972 18.7213L355.69 25.8198C355.219 26.2792 355.004 26.9412 355.115 27.59L356.834 37.6133C357.114 39.2471 355.399 40.493 353.932 39.7216L344.931 34.9893C344.348 34.683 343.652 34.683 343.069 34.9893L334.068 39.7216C332.601 40.493 330.886 39.2471 331.166 37.6133L332.885 27.59C332.996 26.9412 332.781 26.2792 332.31 25.8198L325.028 18.7213C323.841 17.5642 324.496 15.5482 326.136 15.3099L336.2 13.8475C336.851 13.7528 337.414 13.3437 337.706 12.7534L342.207 3.63397Z" fill="#5D44E1"/>
<path d="M334.068 39.7216L344 34.5V3.8572C344 3.43265 344 2.5 344 2.5C344 2.5 343.296 2.5 342.651 3.06671C342.386 3.30053 342.214 3.61857 342.057 3.93606L337.706 12.7534C337.414 13.3437 336.851 13.7529 336.2 13.8475L326.136 15.3099C324.496 15.5482 323.841 17.5642 325.028 18.7213L332.31 25.8198C332.781 26.2792 332.996 26.9412 332.885 27.59L331.166 37.6133C330.886 39.2471 332.601 40.493 334.068 39.7216Z" fill="#F2BC0F"/>
<path opacity="0.7" d="M122.516 59.998C120.332 59.998 119.016 61.608 119.016 64.002C119.016 66.452 120.444 67.866 122.53 67.866C124.252 67.866 125.638 66.984 125.638 64.94V64.646H122.25V63.428H126.926V69.014H125.778L125.68 67.642C125.134 68.524 123.902 69.168 122.418 69.168C119.548 69.168 117.574 67.096 117.574 63.974C117.574 60.894 119.562 58.71 122.544 58.71C124.756 58.71 126.478 59.984 126.814 61.93H125.358C124.98 60.642 123.86 59.998 122.516 59.998ZM128.209 65.57C128.209 63.456 129.721 61.972 131.779 61.972C133.823 61.972 135.335 63.456 135.335 65.57C135.335 67.684 133.823 69.168 131.779 69.168C129.721 69.168 128.209 67.684 128.209 65.57ZM129.539 65.57C129.539 66.998 130.449 67.992 131.779 67.992C133.095 67.992 134.019 66.998 134.019 65.57C134.019 64.142 133.095 63.148 131.779 63.148C130.449 63.148 129.539 64.142 129.539 65.57ZM136.344 65.57C136.344 63.456 137.856 61.972 139.914 61.972C141.958 61.972 143.47 63.456 143.47 65.57C143.47 67.684 141.958 69.168 139.914 69.168C137.856 69.168 136.344 67.684 136.344 65.57ZM137.674 65.57C137.674 66.998 138.584 67.992 139.914 67.992C141.23 67.992 142.154 66.998 142.154 65.57C142.154 64.142 141.23 63.148 139.914 63.148C138.584 63.148 137.674 64.142 137.674 65.57ZM144.493 65.402C144.493 63.47 145.739 61.958 147.727 61.958C148.833 61.958 149.687 62.462 150.121 63.316L150.219 62.154H151.395V68.72C151.395 70.876 150.065 72.248 147.965 72.248C146.103 72.248 144.829 71.198 144.577 69.462H145.893C146.061 70.47 146.817 71.058 147.965 71.058C149.253 71.058 150.093 70.218 150.093 68.916V67.544C149.645 68.342 148.749 68.818 147.671 68.818C145.725 68.818 144.493 67.32 144.493 65.402ZM145.809 65.374C145.809 66.662 146.607 67.67 147.895 67.67C149.225 67.67 150.037 66.718 150.037 65.374C150.037 64.058 149.253 63.106 147.909 63.106C146.593 63.106 145.809 64.114 145.809 65.374ZM154.638 69H153.322V58.696H154.638V69ZM159.529 69.168C157.513 69.168 156.127 67.712 156.127 65.584C156.127 63.442 157.485 61.958 159.473 61.958C161.419 61.958 162.693 63.302 162.693 65.332V65.822L157.401 65.836C157.499 67.278 158.255 68.076 159.557 68.076C160.579 68.076 161.251 67.656 161.475 66.872H162.707C162.371 68.342 161.223 69.168 159.529 69.168ZM159.473 63.064C158.325 63.064 157.597 63.75 157.429 64.954H161.377C161.377 63.82 160.635 63.064 159.473 63.064ZM172.149 65.388H169.587V69H168.215V58.878H172.149C174.137 58.878 175.411 60.18 175.411 62.126C175.411 64.016 174.123 65.388 172.149 65.388ZM171.911 60.11H169.587V64.156H171.855C173.213 64.156 173.969 63.358 173.969 62.112C173.969 60.838 173.199 60.11 171.911 60.11ZM178.085 69H176.769V58.696H178.085V69ZM182.024 69.168C180.554 69.168 179.686 68.342 179.686 67.096C179.686 65.836 180.624 65.052 182.234 64.926L184.39 64.758V64.562C184.39 63.414 183.704 63.008 182.78 63.008C181.674 63.008 181.044 63.498 181.044 64.324H179.896C179.896 62.896 181.072 61.958 182.836 61.958C184.53 61.958 185.678 62.854 185.678 64.702V69H184.558L184.418 67.894C184.068 68.678 183.13 69.168 182.024 69.168ZM182.402 68.146C183.648 68.146 184.404 67.334 184.404 66.046V65.682L182.654 65.822C181.492 65.934 181.016 66.382 181.016 67.054C181.016 67.782 181.548 68.146 182.402 68.146ZM186.679 72.066V70.988H187.561C188.191 70.988 188.695 70.89 189.017 70.022L189.255 69.364L186.497 62.154H187.883L189.871 67.67L191.901 62.154H193.259L190.025 70.54C189.563 71.716 188.877 72.206 187.827 72.206C187.393 72.206 187.029 72.15 186.679 72.066ZM193.654 67.012H194.914C194.914 67.712 195.446 68.132 196.314 68.132C197.238 68.132 197.77 67.754 197.77 67.124C197.77 66.662 197.546 66.382 196.832 66.2L195.628 65.92C194.41 65.626 193.836 65.024 193.836 64.016C193.836 62.756 194.9 61.958 196.412 61.958C197.91 61.958 198.89 62.798 198.918 64.1H197.658C197.63 63.414 197.168 62.98 196.37 62.98C195.544 62.98 195.082 63.344 195.082 63.974C195.082 64.436 195.418 64.744 196.09 64.912L197.294 65.206C198.456 65.486 199.03 66.018 199.03 67.04C199.03 68.342 197.91 69.168 196.286 69.168C194.676 69.168 193.654 68.314 193.654 67.012ZM202.421 69H201.105V63.26H199.761V62.154H201.105V60.012H202.421V62.154H203.765V63.26H202.421V69ZM204.43 65.57C204.43 63.456 205.942 61.972 208 61.972C210.044 61.972 211.556 63.456 211.556 65.57C211.556 67.684 210.044 69.168 208 69.168C205.942 69.168 204.43 67.684 204.43 65.57ZM205.76 65.57C205.76 66.998 206.67 67.992 208 67.992C209.316 67.992 210.24 66.998 210.24 65.57C210.24 64.142 209.316 63.148 208 63.148C206.67 63.148 205.76 64.142 205.76 65.57ZM216.933 62.098V63.302H216.345C215.099 63.302 214.329 64.058 214.329 65.374V69H213.013V62.168H214.245L214.329 63.204C214.609 62.49 215.295 62.014 216.233 62.014C216.471 62.014 216.667 62.042 216.933 62.098ZM220.875 69.168C218.859 69.168 217.473 67.712 217.473 65.584C217.473 63.442 218.831 61.958 220.819 61.958C222.765 61.958 224.039 63.302 224.039 65.332V65.822L218.747 65.836C218.845 67.278 219.601 68.076 220.903 68.076C221.925 68.076 222.597 67.656 222.821 66.872H224.053C223.717 68.342 222.569 69.168 220.875 69.168ZM220.819 63.064C219.671 63.064 218.943 63.75 218.775 64.954H222.723C222.723 63.82 221.981 63.064 220.819 63.064ZM236.137 69L235.339 68.09C234.555 68.79 233.477 69.182 232.203 69.182C230.033 69.182 228.605 68.062 228.605 66.368C228.605 65.122 229.403 64.128 231.083 63.26C230.215 62.266 229.893 61.65 229.893 60.894C229.893 59.62 230.887 58.71 232.315 58.71C233.701 58.71 234.653 59.564 234.653 60.81C234.653 61.818 234.135 62.602 232.833 63.484L235.255 66.242C235.479 65.696 235.605 65.024 235.605 64.268H236.879C236.879 65.416 236.599 66.424 236.109 67.208L237.677 69H236.137ZM231.139 60.88C231.139 61.412 231.377 61.832 232.161 62.728C233.015 62.21 233.421 61.594 233.421 60.838C233.421 60.18 233.001 59.774 232.301 59.774C231.587 59.774 231.139 60.208 231.139 60.88ZM229.977 66.27C229.977 67.376 230.859 68.048 232.329 68.048C233.267 68.048 234.023 67.768 234.583 67.222L231.741 64.002C230.481 64.702 229.977 65.36 229.977 66.27ZM242.723 60.53C242.247 60.53 241.855 60.138 241.855 59.662C241.855 59.172 242.247 58.794 242.723 58.794C243.199 58.794 243.591 59.172 243.591 59.662C243.591 60.138 243.199 60.53 242.723 60.53ZM242.079 69V62.154H243.395V69H242.079ZM254.658 63.932C254.658 67.012 252.642 69.168 249.772 69.168C246.916 69.168 244.928 67.012 244.928 63.932C244.928 60.866 246.93 58.696 249.786 58.696C252.656 58.696 254.658 60.852 254.658 63.932ZM253.216 63.932C253.216 61.58 251.844 60.026 249.786 60.026C247.728 60.026 246.37 61.58 246.37 63.932C246.37 66.284 247.728 67.852 249.786 67.852C251.844 67.852 253.216 66.27 253.216 63.932ZM255.824 61.608C255.824 59.872 257.224 58.696 259.31 58.696C261.242 58.696 262.488 59.774 262.6 61.524H261.214C261.144 60.516 260.43 59.928 259.296 59.928C258.022 59.928 257.196 60.572 257.196 61.566C257.196 62.378 257.658 62.868 258.61 63.092L260.276 63.484C261.928 63.862 262.768 64.758 262.768 66.186C262.768 68.006 261.354 69.168 259.198 69.168C257.14 69.168 255.768 68.09 255.684 66.354H257.084C257.112 67.32 257.924 67.936 259.198 67.936C260.542 67.936 261.396 67.306 261.396 66.298C261.396 65.5 260.962 64.996 259.996 64.772L258.33 64.394C256.678 64.016 255.824 63.064 255.824 61.608ZM267.537 67.012H268.797C268.797 67.712 269.329 68.132 270.197 68.132C271.121 68.132 271.653 67.754 271.653 67.124C271.653 66.662 271.429 66.382 270.715 66.2L269.511 65.92C268.293 65.626 267.719 65.024 267.719 64.016C267.719 62.756 268.783 61.958 270.295 61.958C271.793 61.958 272.773 62.798 272.801 64.1H271.541C271.513 63.414 271.051 62.98 270.253 62.98C269.427 62.98 268.965 63.344 268.965 63.974C268.965 64.436 269.301 64.744 269.973 64.912L271.177 65.206C272.339 65.486 272.913 66.018 272.913 67.04C272.913 68.342 271.793 69.168 270.169 69.168C268.559 69.168 267.537 68.314 267.537 67.012ZM276.304 69H274.988V63.26H273.644V62.154H274.988V60.012H276.304V62.154H277.648V63.26H276.304V69ZM278.313 65.57C278.313 63.456 279.825 61.972 281.883 61.972C283.927 61.972 285.439 63.456 285.439 65.57C285.439 67.684 283.927 69.168 281.883 69.168C279.825 69.168 278.313 67.684 278.313 65.57ZM279.643 65.57C279.643 66.998 280.553 67.992 281.883 67.992C283.199 67.992 284.123 66.998 284.123 65.57C284.123 64.142 283.199 63.148 281.883 63.148C280.553 63.148 279.643 64.142 279.643 65.57ZM290.815 62.098V63.302H290.227C288.981 63.302 288.211 64.058 288.211 65.374V69H286.895V62.168H288.127L288.211 63.204C288.491 62.49 289.177 62.014 290.115 62.014C290.353 62.014 290.549 62.042 290.815 62.098ZM294.758 69.168C292.742 69.168 291.356 67.712 291.356 65.584C291.356 63.442 292.714 61.958 294.702 61.958C296.648 61.958 297.922 63.302 297.922 65.332V65.822L292.63 65.836C292.728 67.278 293.484 68.076 294.786 68.076C295.808 68.076 296.48 67.656 296.704 66.872H297.936C297.6 68.342 296.452 69.168 294.758 69.168ZM294.702 63.064C293.554 63.064 292.826 63.75 292.658 64.954H296.606C296.606 63.82 295.864 63.064 294.702 63.064Z" fill="white"/>
</svg>
