<svg width="100" height="100" viewBox="0 0 100 100" fill="none" xmlns="http://www.w3.org/2000/svg">
<rect width="100" height="100" rx="50" fill="#5D44E1"/>
<path opacity="0.2" d="M65.625 42.1875H34.375C33.5121 42.1875 32.8125 42.8871 32.8125 43.75V65.625C32.8125 66.4879 33.5121 67.1875 34.375 67.1875H65.625C66.4879 67.1875 67.1875 66.4879 67.1875 65.625V43.75C67.1875 42.8871 66.4879 42.1875 65.625 42.1875Z" fill="white"/>
<path d="M32.8125 48.4375H67.1875" stroke="white" stroke-width="2" stroke-linecap="round" stroke-linejoin="round"/>
<path d="M32.8125 54.6875H67.1875" stroke="white" stroke-width="2" stroke-linecap="round" stroke-linejoin="round"/>
<path d="M32.8125 60.9375H67.1875" stroke="white" stroke-width="2" stroke-linecap="round" stroke-linejoin="round"/>
<path d="M65.625 42.1875H34.375C33.5121 42.1875 32.8125 42.8871 32.8125 43.75V65.625C32.8125 66.4879 33.5121 67.1875 34.375 67.1875H65.625C66.4879 67.1875 67.1875 66.4879 67.1875 65.625V43.75C67.1875 42.8871 66.4879 42.1875 65.625 42.1875Z" stroke="white" stroke-width="2" stroke-linecap="round" stroke-linejoin="round"/>
<path d="M42.9688 42.1875V35.1562C42.9688 33.2914 43.7095 31.503 45.0282 30.1844C46.3468 28.8658 48.1352 28.125 50 28.125C51.8648 28.125 53.6532 28.8658 54.9718 30.1844C56.2905 31.503 57.0312 33.2914 57.0312 35.1562V42.1875" stroke="white" stroke-width="2" stroke-linecap="round" stroke-linejoin="round"/>
</svg>
