<svg width="19" height="16" viewBox="0 0 19 16" fill="none" xmlns="http://www.w3.org/2000/svg">
<path d="M5.86738 12.2795C4.16613 12.0168 3.0278 11.1287 2.25223 9.6401C2.99027 9.6401 3.65326 9.6401 4.31624 9.6401C2.47739 8.88955 0.988801 7.88881 0.888727 5.61214C1.5267 5.81229 2.10212 5.99993 2.67754 6.18756C1.75186 5.38698 1.05134 4.4738 0.976289 3.19787C0.926252 2.40979 1.13891 1.68426 1.55171 0.971232C3.62824 3.49809 6.21764 4.86159 9.47003 4.93665C9.42 4.48631 9.2949 4.061 9.34494 3.6482C9.50756 2.13459 10.3957 1.14636 11.7467 0.570938C13.0727 0.0080241 14.3236 0.22068 15.3994 1.17138C15.7747 1.50913 16.0749 1.6092 16.5502 1.42156C17.0256 1.23392 17.5385 1.13385 18.1639 0.958722C17.7011 1.53415 17.3258 2.022 16.8755 2.58492C17.5259 2.48484 18.0889 2.39728 18.6393 2.32222C18.6518 2.34724 18.6643 2.38477 18.6768 2.40979C18.1639 2.8351 17.6385 3.26041 17.1382 3.71074C17.0131 3.82333 16.888 4.02347 16.913 4.16108C17.1757 6.56284 16.3876 8.67689 15.0741 10.6158C13.2228 13.3303 10.6834 15.0065 7.36849 15.3568C4.9417 15.6195 2.66503 15.0316 0.475922 13.9683C2.37732 13.8557 4.17864 13.4304 5.86738 12.2795Z" fill="#492ED5"/>
</svg>
