<svg width="100" height="100" viewBox="0 0 100 100" fill="none" xmlns="http://www.w3.org/2000/svg">
<rect width="100" height="100" rx="50" fill="#5D44E1"/>
<path opacity="0.2" d="M50 68.75C60.3553 68.75 68.75 60.3553 68.75 50C68.75 39.6447 60.3553 31.25 50 31.25C39.6447 31.25 31.25 39.6447 31.25 50C31.25 60.3553 39.6447 68.75 50 68.75Z" fill="white"/>
<path d="M50 68.75C60.3553 68.75 68.75 60.3553 68.75 50C68.75 39.6447 60.3553 31.25 50 31.25C39.6447 31.25 31.25 39.6447 31.25 50C31.25 60.3553 39.6447 68.75 50 68.75Z" stroke="white" stroke-width="2" stroke-miterlimit="10"/>
<path d="M54.6875 41.4062H46.8359L45.3125 50.8203C46.0773 50.0555 47.0518 49.5348 48.1126 49.3238C49.1734 49.1128 50.273 49.2212 51.2722 49.6351C52.2715 50.049 53.1255 50.75 53.7264 51.6493C54.3273 52.5486 54.648 53.6059 54.648 54.6875C54.648 55.7691 54.3273 56.8264 53.7264 57.7257C53.1255 58.625 52.2715 59.326 51.2722 59.7399C50.273 60.1538 49.1734 60.2622 48.1126 60.0512C47.0518 59.8402 46.0773 59.3195 45.3125 58.5547" stroke="white" stroke-width="2" stroke-linecap="round" stroke-linejoin="round"/>
</svg>
